<?xml version="1.0" encoding="utf-8"?>
<!-- Generator: Adobe Illustrator 27.5.0, SVG Export Plug-In . SVG Version: 6.00 Build 0)  -->
<svg version="1.1" xmlns="http://www.w3.org/2000/svg" xmlns:xlink="http://www.w3.org/1999/xlink" x="0px" y="0px"
	 viewBox="0 0 6000 2500" style="enable-background:new 0 0 6000 2500;" xml:space="preserve">
<g id="Layer_2">
	<rect style="fill:#FFFFFF;" width="6000" height="2500"/>
</g>
<g id="Layer_1">
	<g>
		<defs>
			<rect id="SVGID_1_" width="6000" height="2500"/>
		</defs>
		<clipPath id="SVGID_00000068663527117876179170000011450156345655539073_">
			<use xlink:href="#SVGID_1_"  style="overflow:visible;"/>
		</clipPath>
		<g style="clip-path:url(#SVGID_00000068663527117876179170000011450156345655539073_);">
			<g>
				<polygon style="fill:#E6E7E8;" points="7529.48,1950.64 7529.48,2252.11 -1054.92,2252.11 -1054.92,1950.64 -804.84,1950.64 
					-799.22,1739.81 -694.54,1739.81 -694.54,1247.19 -457.75,1247.19 -457.75,1349.45 -363.34,1349.45 -363.34,1519.56 
					-287.57,1519.56 -287.57,1836.17 -203.44,1836.17 -203.44,1510.86 -37.44,1510.86 -37.44,1302.97 115.61,1302.97 
					115.61,1681.12 175,1681.12 175,1598.56 252.67,1598.56 252.67,1992.66 466.63,1992.66 466.63,1678.95 471.47,1678.95 
					471.47,1095.91 694.34,1290.61 694.34,2044.83 796.33,2044.83 796.33,1765.89 877.05,1765.89 877.05,1555.01 1026.28,1555.01 
					1026.28,1521.96 1094.05,1521.96 1094.05,1468.24 1267.66,1286.81 1267.66,1524.02 1330.86,1524.02 1330.86,1734.75 
					1366.64,1734.75 1366.64,1619.05 1434.73,1619.05 1434.73,1897.96 1501.46,1897.96 1501.46,1296.32 1634.04,1296.32 
					1634.04,1508.87 1911.07,1508.87 1911.07,1652.87 1994.07,1652.87 2062.57,1616.76 2112.09,1551.44 2112.09,1753.57 
					2159.3,1753.57 2159.3,1257.44 2296.01,1410.41 2302.45,1417.62 2302.45,1598.56 2430.37,1598.56 2430.37,1507.24 
					2466.16,1507.24 2466.16,1437.77 2541.54,1437.77 2541.54,1523.18 2592.56,1523.18 2592.56,1452.49 2626.06,1452.49 
					2626.06,1405.81 2691.54,1405.81 2691.54,1758.65 2720.48,1758.65 2720.48,1264.53 2735.71,1237.73 2793.87,1237.73 
					2793.87,1283.4 2858.03,1283.4 2858.03,1332.58 2989.86,1332.58 2989.86,1565.93 3020.48,1565.93 3020.48,1450.94 
					3147.01,1450.94 3147.01,1380.45 3176.58,1350.02 3242.82,1380.45 3242.82,1967.31 3401.56,1967.31 3401.56,1801.74 
					3622.33,1801.74 3622.33,1539.48 3876.79,1348.9 3876.79,1909.17 4039.41,1909.17 4039.41,1514.25 4510.32,1314.18 
					4510.32,1894.13 4788.51,1894.13 4788.51,1674.61 5018.47,1674.61 5018.47,1426.82 5201.21,1426.82 5201.21,1281.91 
					5322.77,1420.15 5322.77,1616.64 5457.05,1616.64 5457.05,1364.95 5664.6,1365.38 5667.1,1583.82 5668.99,1749.23 
					5930.66,1749.23 5930.66,1393.87 6121.78,1393.87 6121.78,1216.2 6330.22,1216.2 6330.22,1034.14 6481.95,1034.14 
					6481.95,1115.28 6603.77,1115.28 6603.77,1168.89 6712.66,1168.89 6712.66,1220.33 6890.07,1220.33 6890.07,1943.4 
					6931.95,1943.4 6931.95,1284.09 6979.92,1284.09 7208.35,1501.44 7208.35,1854.28 7289.83,1854.28 7289.83,1950.64 				"/>
				<polygon style="fill:#A7A9AC;" points="6368.66,2149.777 6363.977,1965.547 6276.745,1965.547 6276.745,1535.074 
					6079.403,1535.074 6079.403,1624.435 6000.719,1624.435 6000.719,1773.081 5937.578,1773.081 5937.578,2049.75 
					5867.459,2049.75 5867.459,1765.482 5729.118,1765.482 5729.118,1583.817 5601.573,1583.817 5601.573,1914.263 
					5552.073,1914.263 5552.073,1842.115 5487.346,1842.115 5487.346,2186.499 5309.031,2186.499 5309.031,1912.365 
					5220.828,1912.365 5220.828,1402.881 5119.259,1573.017 5119.259,2232.087 5034.263,2232.087 5034.263,1988.338 
					4966.996,1988.338 4966.996,1804.062 4842.623,1804.062 4842.623,1775.178 4786.145,1775.178 4786.145,1728.24 
					4641.464,1569.693 4641.464,1776.983 4588.791,1776.983 4588.791,1961.125 4558.968,1961.125 4558.968,1860.024 
					4502.227,1860.024 4502.227,2103.744 4446.615,2103.744 4446.615,1734.42 4336.124,1734.42 4336.124,1920.162 
					4105.247,1920.162 4105.247,1889.573 4036.077,1889.573 3978.992,1858.021 3937.722,1800.937 3937.722,1977.573 
					3898.38,1977.573 3898.38,1544.03 3779.077,1684.006 3779.077,1842.115 3672.468,1842.115 3672.468,1762.316 3642.645,1762.316 
					3642.645,1701.611 3579.821,1701.611 3579.821,1776.247 3537.305,1776.247 3537.305,1714.473 3509.385,1714.473 
					3509.385,1673.68 3454.81,1673.68 3454.81,1982.006 3430.696,1982.006 3430.696,1550.225 3418.003,1526.803 3348.2,1526.803 
					3348.2,1485.647 3273.368,1485.647 3273.368,1533.765 3237.153,1533.765 3206.194,1554.022 3206.194,1813.6 3180.675,1813.6 
					3180.675,1713.118 3075.23,1713.118 3075.23,1651.525 3050.588,1624.931 2995.381,1651.525 2995.381,2164.344 
					2863.087,2164.344 2863.087,2019.663 2679.099,2019.663 2679.099,1790.493 2467.039,1790.493 2467.039,2113.539 
					2331.508,2113.539 2331.508,1392.188 1939.059,1593.612 1939.059,2100.397 1707.217,2100.397 1707.217,1908.568 
					1515.571,1908.568 1515.571,1692.044 1363.278,1692.044 1363.278,1565.416 1261.967,1479.316 1261.967,1857.915 
					1150.059,1857.915 1150.059,1637.974 1059.315,1637.974 1059.315,2129.018 997.761,2129.018 997.761,1869.792 755.357,1869.792 
					755.357,1663.248 639.234,1663.248 641.713,1897.26 422.372,1707.595 422.372,1348.899 194.393,1348.899 103.649,1419.808 
					103.649,1419.808 103.649,1466.653 103.649,1466.653 103.649,1511.605 -44.206,1511.605 -44.206,2143.451 -79.11,2143.451 
					-79.11,1567.322 -119.084,1567.322 -309.46,1757.252 -309.46,2065.579 -377.36,2065.579 -377.36,2149.777 -577.079,2149.777 
					-577.079,2413.221 2995.381,2413.221 3363.539,2413.221 6577.079,2413.221 6577.079,2149.777 				"/>
			</g>
			<path style="fill:#0A0A0A;" d="M6137.03,2430.87v-130.42H6016.5v-206.58h-138.92v297.91h-38.56v-266.02h0.09v-114.88
				c-19.31-61.52-25.7-165.23-27.61-243.33c-0.13-5.56-0.25-10.98-0.34-16.25c-0.18-10.34-0.29-20.08-0.35-29.05
				c-0.27-42.73-3.21-85.39-8.86-127.67l-0.49-3.62l-0.48,3.62c-5.65,42.28-8.6,84.94-8.86,127.67c-0.06,8.97-0.16,18.71-0.35,29.05
				c-0.09,5.27-0.21,10.69-0.34,16.25c-1.91,78.1-8.3,181.81-27.62,243.33l0.11,174.77l-181.99,2.38v58.91h-84.21v-32.74h-20.58
				v-103.94h10.67v-15.33h-10.09v-6.9c0-2.21-0.17-4.41-0.52-6.59c-2.09-12.95-10.68-22.88-20.69-29.56
				c-4.09-2.74-8.43-4.92-12.89-6.85c-3.18-1.38-6.48-2.09-9.53-3.9c-2.6-1.56-4.95-3.54-6.99-5.86c-0.53-0.6-1.04-1.22-1.52-1.86
				l-3.45-4.58l-0.21-0.27l-3.65,4.85c-0.48,0.64-0.99,1.26-1.52,1.86c-2.04,2.32-4.4,4.31-6.99,5.86c-3.05,1.81-6.35,2.52-9.53,3.9
				c-4.46,1.93-8.79,4.11-12.9,6.85c-10,6.68-18.59,16.61-20.68,29.56c-0.35,2.18-0.52,4.38-0.52,6.59v6.9h-9.68v15.33h10.67v62.27
				h-17.94v-20.84h-88.04v-17.58c0-89.22-107.21-116.57-107.21-116.57v-5.68l-10.78-2.88v-9.91l-15.57,4.15
				c-1.7-29.52-2.07-69.95-2.12-94.9c-0.01-8.13-0.11-16.25-0.28-24.34c2.95-0.17,5.93-0.89,8.79-2.28
				c10.08-4.9,15.62-16.3,14.33-27.63c-1.07,7.5-5.5,14.28-12.34,17.6c-3.6,1.75-7.4,2.3-11.05,1.85
				c-0.13-4.43-0.27-8.86-0.45-13.28l7.22,5.71l-2.85-9.54l7.46-5.89h-9.22l-2.85-9.54l-2.85,9.54h-9.22l6.11,4.82l1.35,1.07
				l-1.35,4.52l-1.5,5.02l1.5-1.18l5.96-4.71l0.04,0.02c-0.18,4.42-0.33,8.85-0.46,13.29c-1.92-0.35-3.79-0.98-5.54-1.87
				c-4.46-2.26-8.229-6.22-10.4-11.49c-3.82-9.3-1.54-19.88,4.98-26.43c-11.59,6.39-16.65,21.63-11.28,34.67
				c3.23,7.86,9.54,13.17,16.7,15.02c1.72,0.45,3.49,0.7,5.271,0.73c-0.17,8.09-0.271,16.2-0.28,24.32
				c-0.05,24.92-0.42,65.27-2.12,94.78l-2.87-0.76l-12.25-3.27v9.91l-10.78,2.88v5.68c0,0-32.69,8.34-61.97,30.83
				c-23.74,18.24-45.24,45.78-45.24,85.74v17.58h-88.04v20.84h-77.86v10.42h20.36v31.25h-81.74v-38.63h-88.87v-48.28h-81.14
				l1.03-53.35l-5.97-15.34l0.54-41.9h5.43v-25.37h-6.52l-4.87-4.13l1.1-24.01l0.521-11.41l3.25-5.89v-22.43l-7.05-6.49l-4.27-20.77
				l-7.13-34.7l-6.11,34.7l-2.71,15.38l-0.95,5.39l-0.84-20.77l-1.39-34.11l-2.11-51.93l-1.63-44.26l9.78-9.44l-3.26-15.34h-13.03
				l-5.16-112.13l1.51-3.97l0.01-0.03v-0.01l5.11-8.83l2.36-4.07l-2.36-4.09l-8.07-13.98l-3.73-6.45l-3.73,6.45l-8.07,13.98
				l-2.36,4.08l2.36,4.08l6.36,11.02l0.01,0.01l0.25,0.67l-5.15,112.12h-13.03l-1.53,7.2l-1.73,8.15l1.73,1.67l8.05,7.77
				l-1.63,44.27l-2.16,53.06l-1.38,34.11l-0.8,19.64l-9.48-53.75l-0.3-1.73l-0.36,1.73l-0.03,0.17l-11.01,53.58l-7.05,6.48v22.42
				l3.26,5.9l1.62,35.42l-4.88,4.13h-6.51v25.37h5.42l0.55,41.89l-5.97,15.35l0.08,4.27l-31.12-33.83l-17.04-18.53v-10.62h-12.41
				v11.28l-47.3,51.42l0.05-2.85l-5.97-15.34l0.54-41.9h5.43v-25.37h-6.52l-4.87-4.13l1.62-35.42l3.25-5.89v-22.43l-7.05-6.49
				l-11.4-55.47l-8.83,50.13l-0.94,5.34l-4.34-106.81l-1.63-44.26l6.91-6.67l2.87-2.77l-2.87-13.5l-0.39-1.84h-13.03l-5.16-112.13
				l1.51-3.97l0.01-0.03v-0.01l5.11-8.83l2.36-4.07l-2.36-4.09l-8.07-13.98l-3.74-6.45l-3.72,6.45l-8.07,13.98l-2.36,4.08l2.36,4.08
				l6.36,11.02l0.01,0.01l0.25,0.67l-5.15,112.12h-13.03l-3.26,15.35l9.78,9.44l-1.63,44.27l-4.34,106.81l-9.78-55.48l-11.4,55.48
				l-6.95,6.39l-0.1,0.09v22.42l3.26,5.9l1.62,35.42l-4.88,4.13h-6.51v25.37h5.42l0.55,41.89l-5.97,15.35l1.3,67.4h-47.49v-154.59
				h-99.77v-319.28l-66.37,167.42v270.29h-73.3v-157.02h-59.45v350.55h-31.4v-1.31h-31.84v-109.52h-20.99V1803h-3.86
				c0.37-0.76,0.7-1.6,0.5-2.48c-0.15-0.7-0.66-1.86-1.33-2.17c-0.45-0.18-1.68-0.12-2.11,0.06c-0.39,0.18-0.61,0.25-1.01,0.31
				c-0.42,0.05-0.75,0.37-1.17,0.42c-0.82,0.11-1.74-0.02-2.56-0.02c-0.52,0-1.13,0.12-1.64-0.03c-0.56-0.17-0.99-0.38-1.6-0.37
				c-0.37,0.01-0.33,0.01-0.59-0.17c-0.4-0.3-0.73-0.7-1.18-0.92c-0.43-0.23-0.64-0.4-0.99-0.7c-0.26-0.23-0.57-0.23-0.83-0.46
				c-0.51-0.48-1.15-1.11-1.55-1.7c-0.19-0.27-0.27-0.61-0.44-0.89c-0.29-0.46-0.45-0.98-0.71-1.46c-0.14-0.26-0.41-0.51-0.74-0.75
				c-1.02-1.56-2.07-3.11-2.58-4.89c-0.51-1.78-0.6-3.72-1.12-5.46c-0.28-0.91-0.81-1.74-1.14-2.69c-0.61-1.8-1.1-3.67-1.24-5.59
				c-0.12-1.7-0.53-2.75-1.17-4.29c-0.57-1.37-0.98-2.76-1.42-4.17c-0.64-2.05-2.02-3.49-3.03-5.31c-1.44-2.6-2.44-5.35-2.98-8.42
				c-0.52-2.94-1.32-5.88-2.06-8.74c-0.36-1.38-0.17-2.83-0.56-4.17c-0.29-1.02-1.06-1.76-1.41-2.69c-0.24-0.65-0.04-1.42-0.14-2.12
				c-0.11-0.73-0.32-1.32-0.53-2.01c-0.49-1.62-0.8-3.31-1.25-4.96c-0.5-1.85-1.03-3.71-1.34-5.61c-0.25-1.52-0.68-2.64-1.12-4.08
				c-0.66-2.14-0.76-4.43-1.45-6.57c-0.03-0.09-0.06-0.19-0.08-0.28c-0.4-1.4-0.5-2.68-0.78-4.12c-0.34-1.64-1.46-2.8-2.2-4.3
				c-0.69-1.37-1.59-2.66-2.39-3.98c-0.27-0.46-0.76-0.97-0.95-1.47c-0.32-0.81-0.07-1.36-0.12-2.17c-0.06-1.01-0.72-1.48-0.89-2.39
				c-0.35-1.85,0.05-4.35,0.05-6.26c0-1.03-0.09-2.09-0.03-3.13c0.05-1.03,0.54-1.68,0.77-2.65c0.2-0.88,0.16-1.23,0.66-1.99
				c0.63-0.99,1.3-1.92,1.87-2.94c0.6-1.05,1.25-2.06,1.86-3.11c0.53-0.95,1.29-1.58,1.56-2.68c0.27-1.05,0.8-2.07,1.04-3.09
				c0.18-0.85,0.06-1.8,0.06-2.68c-0.01-1.23-0.57-4.56,0.44-5.29c0.69-0.5,2.03-0.76,2.84-0.96c1.13-0.27,1.88-1.15,2.87-1.79
				c2.18-1.45,3.92-3.83,5.74-5.81c1.66-1.81,3.61-3.47,5.13-5.34c0.51-0.63,1.21-1.3,1.6-1.99c0.44-0.75,0.63-1.69,1.03-2.48
				c0.61-1.21,1.71-1.91,2.31-3.11c0.27-0.51,0.36-1.03,0.66-1.53c0.43-0.69,0.99-1.08,1.55-1.63c1.14-1.12,2.05-2.4,3.33-3.36
				c0.81-0.62,1.6-1.18,2.43-1.75c1.83-1.21,3.9-2.61,5.43-4.23c0.9-0.95,2.1-1.33,3.1-2.2c0.91-0.78,1.61-1.8,2.49-2.65
				c1.2-1.16,2.19-2.44,2.91-4.03c0.41-0.9,0.82-1.83,1.22-2.71c0.4-0.83,1.03-1.41,1.49-2.22c0.45-0.8,0.64-1.71,1.19-2.46
				c0.39-0.56,0.89-0.85,1.25-1.48c0.28-0.5,0.29-1.08,1.02-0.97c0.38,0.05,0.31-0.41,0.48-0.75c0.3-0.62,0.6-1.33,1-1.89
				c0.33-0.46,0.69-0.92,0.94-1.43c0.12-0.24,0.32-0.46,0.42-0.69c0.08-0.18,0.03-0.41,0.03-0.59c-0.01-0.37,0-0.73,0-1.09
				c-0.09,0.22-0.16,0.46-0.27,0.65c-0.78,0.95-1.58,1.89-2.36,2.83c-1.32,1.4-2.64,2.81-3.95,4.21c-1.73,1.73-3.85,3.07-5.22,5.18
				c-0.49,0.76-0.8,1.51-1.59,1.98c-0.68,0.41-1.52,0.5-2.23,0.88c-0.75,0.41-1.21,1.16-1.74,0.29c-0.67-1.09-0.69-2.79-0.7-4.03
				c-0.01-0.73,0.29-2.18,0.01-2.86c-0.11-0.23-0.57-0.8-0.81-0.97c-0.76,0.52-1.18,1.74-1.6,2.54c-0.7,1.3-1.5,2.49-2.25,3.74
				c-1.28,2.15-3.15,4.86-5.73,4.8c-0.92-0.03-1.51-0.33-2.18-0.91c-0.7-0.62-1.63-1.01-2.47-1.5c-0.56-0.31-1.27-1.05-1.62-0.27
				c-0.17,0.38-0.01,1.13-0.01,1.56v3.39c-0.01,0.99,0.19,1.86-0.41,2.64c-0.52,0.68-0.56,0.26-1.27,0.11
				c-0.59-0.13-1.38,0.09-1.96,0.06c-1.07-0.07-1.9-0.52-2.91-0.88c-0.97-0.36-2.04-0.84-3.04-0.95c-0.57-0.06-0.64-0.05-0.95-0.56
				c-0.34-0.55-0.46-1.27-0.79-1.84c-0.28-0.48-0.64-0.79-0.91-1.29c-0.37-0.69-0.39-1.44-0.9-2.08c-1.35-1.71-1.73-4.22-3.44-5.69
				c-0.33,0.82-0.1,1.91-0.09,2.81c0.01,1.54-0.04,3.06,0.05,4.61c0.11,1.82,0.11,3.62,0.19,5.44c0.04,0.9,0.15,2.2,0.7,2.96
				c0.34,0.48,0.95,0.99,1.32,1.4c0.84,0.95,1.83,1.46,2.76,2.26c0.57,0.5,1,1.2,1.51,1.77c0.73,0.79,1.47,1.59,2.11,2.46
				c-0.67-0.07-1.39-0.18-2.08-0.16c-0.8,0.03-1.79,0.32-2.59,0.53c-1.07,0.27-2.38,0.75-3.28,1.44c-0.46,0.36-0.87,0.84-1.32,1.24
				c-0.87,0.78-1.86,1.3-2.84,1.89c-1.01,0.61-1.75,1.11-2.89,1.33c-0.93,0.18-1.69,0.28-2.6,0.21c-1.36-0.1-2.21-0.45-3.39-1.34
				c-1.01-0.78-1.77-1.62-2.71-2.48c-1.48-1.36-4.67-1.94-4.65-4.48c0.01-1.15,0.14-2.01,0.6-3.08c0.21-0.5,0.44-0.95,0.77-1.34
				c0.41-0.49,0.95-0.74,1.36-1.2c0.48-0.51,0.82-1.27,1.23-1.81c0.41-0.53,0.85-1,1.22-1.56c0.71-1.06,0.99-2.69,1.29-3.98
				c0.24-1.1,0.11-2.3,0.11-3.42c0-0.9,0.2-1.98-0.1-2.83c-0.23-0.68-0.86-1.64-1.33-2.16c-0.28-0.32-0.67-0.37-0.98-0.68
				c-0.2-0.19-0.26-0.48-0.45-0.66c-0.46-0.47-0.47-0.3-0.98-0.49c-0.47-0.17-0.23-0.15-0.71-0.59c-0.42-0.38-1.18-0.51-1.69-0.59
				c-1.41-0.27-2.72-0.82-4.09-1.23c-2.68-0.8-5.1-0.79-7.71,0.15c-1.55,0.56-2.81,1.62-4.11,2.69c-0.55,0.46-1.11,0.92-1.67,1.37
				c-0.63,0.51-1.74,0.98-2.11,1.78c-0.29,0.6-0.03,1.71-0.04,2.39c-0.01,0.75-0.14,1.48-0.04,2.23c0.14,0.97,0.55,1.79,0.93,2.68
				c0.8,1.82,1.63,3.97,2.93,5.48c0.76,0.87,1.12,1.57,1.45,2.74c0.69,2.5,0.5,5.13,0.48,7.7c-0.01,1.06-0.08,1.19-1.09,1.15
				c-0.74-0.03-1.48-0.01-2.21-0.01c-0.89,0-1.79-0.01-2.69,0.01c-1.88,0.04-3.42-0.46-5.17-1.22c-0.78-0.34-1.57-0.7-2.25-1.22
				c-0.64-0.5-1.16-1.16-1.76-1.73c-0.76-0.72-1.86-1.32-2.52-2.12c-0.39-0.48-0.7-1.06-0.99-1.61c-0.53-1.03-1.23-1.94-1.85-2.9
				c-0.82-1.27-1.51-2.62-2.29-3.92c-0.41-0.68-0.96-1.25-1.39-1.92c-0.56-0.86-0.95-1.83-1.53-2.67c-0.64-0.93-1.33-1.87-1.79-2.93
				c0.51-0.4,1.08,0.21,1.52,0.39c0.49,0.19,1.06,0.06,1.54,0.24c0.81,0.31,1.15,1.13,1.76,1.71c0.43,0.4,0.94,0.58,1.38,0.92
				c0.71,0.56,1.18,1.39,1.85,1.99c0.52,0.48,1.22,0.7,1.67,1.25c0.86,1.04,0.37,2.2,1.58,3.07c0.47-0.64-0.41-1.53-0.49-2.2
				c-0.07-0.73,0.13-1.49,0.07-2.22c-0.1-1.06-0.97-1.52-1.14-2.54c-0.14-0.85-0.53-1.21-1.09-1.77c-0.85-0.87-1.36-1.96-1.99-3.02
				c-0.57-0.96-1.22-1.89-1.85-2.81c-0.49-0.72-0.99-1.83-1.61-2.39c-0.55-0.5-1.28-0.81-1.88-1.23c-1.15-0.82-2.27-1.67-3.42-2.47
				c-1.27-0.85-2.42-1.86-3.67-2.72c-0.47-0.32-1.3-0.68-1.6-1.25c-0.29-0.57-0.21-1.65-0.09-2.26c0.24-1.27,1.05-1.76,2.04-2.4
				c0.94-0.61,1.57-0.98,2.36-1.83c1.46-1.55,3.87-2.74,4.86-4.74c0.24-0.49,0.12-1.84,0.63-2.07c-1.1,0.15-2.22-0.04-3.32,0.02
				c-1.03,0.06-1.94,0.61-3,0.65c-1.33,0.06-2.73,0.07-4.05,0.01c-1.08-0.04-1.94-0.08-2.32-1.23c-0.19-0.6-0.4-1.13-0.49-1.77
				c-0.21-1.55-0.67-3-0.98-4.54c-0.35-1.77-0.49-3.58-1.1-5.29c-0.6-0.03-0.35,0.94-0.36,1.31c-0.03,1.27-0.6,1.28-1.04,2.27
				c-0.34,0.81,0.11,1.82-0.75,2.42c-0.64,0.44-0.83,0.08-1.5-0.05c-0.86-0.18-1.58-0.17-2.49-0.44c-1.06-0.31-2.79-0.65-3.54-1.64
				c-0.17-0.22-0.23-0.51-0.4-0.74c-0.24-0.32-0.6-0.55-0.84-0.86c-0.35-0.47-0.44-1.1-0.82-1.56c-0.21-0.25-0.45-0.41-0.66-0.7
				c-0.71-1.06-1.39-2.23-2.47-2.83c-0.59-0.32-0.88-0.49-1.12-1.1c-0.12-0.3,0.1-1.24-0.48-1.06c-0.2,0.73,0.02,1.35,0.25,2.02
				c0.65,1.89,1.1,3.65,1.46,5.63c0.36,2.02,1.15,3.89,1.54,5.91c0.36,1.85,0.68,3.72,1.05,5.57c0.3,1.47,0.95,2.77,1.2,4.27
				c0.2,1.36,0.54,2.68,0.88,4.01c0.64,2.49,1,5.1,1.75,7.56c0.35,1.16,1.08,1.98,1.64,3.03c0.88,1.65,1.67,3.28,2.79,4.76
				c1.31,1.76,2.25,3.81,3.51,5.62c1.31,1.9,2.35,3.91,3.59,5.84c0.28,0.42,0.53,0.79,0.76,1.25c0.22,0.49,0.28,1.08,0.59,1.51
				c0.45,0.64,0.61,0.77,0.84,1.64c0.29,1.06,1.13,1.65,1.79,2.46c1.86,2.27,2.87,5.41,4.24,8.02c0.53,1.01,0.7,2.07,1.32,3.02
				c0.29,0.43,0.59,0.79,0.81,1.26c0.18,0.35,0.28,0.74,0.5,1.05c0.47,0.7,1.19,1.11,1.61,1.88c0.31,0.56,0.42,1.16,0.64,1.75
				c0.49,1.32,1.38,2.36,2,3.64c0.37,0.78,0.72,1.27,0.74,2.12c0.02,0.79,0.02,1.53,0.12,2.31c0.27,2.19,1.31,4.39,1.26,6.58
				c-0.06,1.79,0.63,3.75,1.22,5.44c0.22,0.62,0.26,1.36,0.49,1.97c0.36,0.91,1.45,1.64,1.96,2.5c0.51,0.85,1.02,1.73,1.56,2.54
				c0.57,0.86,1.34,1.55,1.91,2.39c0.4,0.58,0.24,1.19,0.48,1.78c0.23,0.55,0.48,1.06,0.84,1.55c0.75,1.06,0.54,2.23,0.54,3.51
				c0,1.47,0.08,2.97,0.02,4.45c-0.04,0.86-0.56,1.51-0.58,2.37c-0.04,0.87,0.11,1.57-0.24,2.38c-0.37,0.88-0.68,1.59-0.91,2.53
				c-0.09,0.38-0.23,0.68-0.36,1.05c-0.17,0.55,0.04,1.16-0.21,1.67c-0.15,0.04-0.3,0.07-0.45,0.1c0,3.12-0.33,5.42-1.23,8.44
				c-0.52,1.74-0.87,3.47-1.35,5.24c-0.47,1.76-0.56,3.62-1.09,5.34c-0.37,1.21-1.03,2.27-1.48,3.43c-0.44,1.14-0.51,2.3-0.8,3.48
				c-0.16,0.68-0.43,1.27-0.53,1.96c-0.06,0.36,0.03,0.98-0.06,1.32c-0.12,0.45-0.44,0.75-0.6,1.18c-0.43,1.08-0.67,2.3-1.08,3.41
				c-1.58,4.16-3.32,8.37-4.63,12.67c-0.47,1.55-0.21,2.94-0.75,4.5c-0.93,2.74-1.12,5.66-2.41,8.23c-0.37,0.76-0.87,1.64-1.08,2.48
				c-0.18,0.72-0.09,1.49-0.34,2.21c-0.31,0.89-0.6,1.58-0.82,2.57c-0.31,1.34-0.5,2.73-0.82,4.06c-0.22,0.95-0.58,1.72-0.65,2.7
				c-0.04,0.84,0.14,1.66-0.15,2.48c-0.3,0.88-0.62,1.31-0.66,2.25c-0.03,1.25,0.02,2.51,0.02,3.76v7.32c0,1.88,0.24,3.94,0.04,5.79
				c-0.24,2.16-2.08,3.6-3.72,4.49c-0.66,0.35-1.28,0.62-1.88,1.11c-0.81,0.67-0.79,0.4-1.67,0.63c-0.62,0.14-0.9,0.63-1.47,0.8
				c-0.48,0.14-1.78-0.27-2.42-0.3c-0.81-0.05-1.08-0.29-1.59-0.93c-0.68-0.84-1.02-0.93-2.03-0.91c-0.67,0.02-1.65-0.22-2.28,0.03
				c-0.24,0.11-1.33,1.62-1.33,1.65c-0.51,0.58-1.31,1.16-1.63,1.91c-0.23,0.55-0.41,2.03,0.01,2.54c0.02,0.02,0.05,0.04,0.06,0.05
				h-2.76v162.06h-84.61v-110.84h-113.8v-113.57h-82.84v50.62h-66.5v33.44h-59.45v32.1h-96.86v451.06h-22.87v-411.29h-26.19
				l-124.71,135.59v220.11h-44.48v60.11h-19.61v-0.05h-112.45c25.18-23.47,58.04-44.59,81.14-58.16
				c16.66-9.78,28.25-15.64,28.25-15.64v-45.31h-150.32l-7.44-171.5L2762.62,1456h13.09l6.31-19.9h-6.31l6.31-19.92h-13.07
				c-0.64-3.67-1.5-6.64-2.89-9.3c0.22-1.02,0.55-2.02,0.97-2.95c2.02-4.43,5.52-8.49,5.96-13.24c0.51-5.64-3.41-10.82-7.4-15.3
				c-3.99-4.48-8.41-9.14-9.14-14.76c-0.58-4.53,1.32-9.02,1.62-13.56c0.66-10.29-6.78-19.43-11.83-28.76
				c-3.72-6.86-6.23-14.21-7.46-21.72c-1.23,7.51-3.74,14.86-7.46,21.72c-4.66,8.6-11.36,17.05-11.84,26.4
				c-0.04,0.7-0.04,1.42,0,2.14c0,0.07,0,0.15,0.01,0.22c0.29,4.54,2.2,9.03,1.61,13.56c-0.15,1.19-0.48,2.33-0.93,3.44
				c-0.23,0.24-0.47,0.48-0.69,0.73c-1.7,1.81-3.2,3.72-3.82,6.18c-0.02,0.08-0.02,0.15-0.04,0.23c-1.18,1.43-2.44,2.81-3.66,4.18
				c-3.99,4.48-7.91,9.66-7.4,15.3c0.44,4.75,3.94,8.81,5.96,13.24c1.88,4.09,1.96,9.56-1.8,12.25h-13.2l6.32,19.92h-6.32l6.32,19.9
				h12.79l-13.11,304.72l-11.22,261.01l-7.38,171.5h-150.29v45.31c0,0,11.59,5.86,28.25,15.64c23.1,13.57,55.96,34.69,81.14,58.16
				H2584v0.05h-79l-1.36-58.21l-1.71-73.31h-57.15v-307.31l-114.27-78.7l-15-10.33v152.82h-51.54v106.12h-41.37v197.51h-45.93
				v-202.93h-90.63v-215.94l-83.55-0.5v161.22c-19.25-26.38-41.38-51.83-64.43-75.64c-86.15-88.99-185.06-155.03-194.16-161.03
				h65.17v-11.89h-7.47c0.12-0.02,0.24-0.05,0.35-0.08c0.12-0.82,0.54-1.37,0.56-2.23c0.02-0.67-0.02-1.36-0.02-2.03
				c0-0.62,0.06-1.2-0.04-1.78c-0.06-0.42-0.24-0.79-0.33-1.19c-0.22-0.97-0.25-2.16-0.01-3.13c0.21-0.92,0.8-1.71,0.92-2.63
				c0.16-1.26-0.65-2.11-1.1-3.19c-0.63-1.52-2.32-2.66-3.63-3.41c-0.69-0.39-1.4-0.19-2.18-0.19c-2.73-0.01-5.28,0.29-7.75-1.31
				c-0.76-0.5-1.71-1.16-2.22-1.98c-0.62-1.01-1.04-2.05-1.8-2.95c-0.79-0.93-1.62-1.83-2.43-2.74c-1.3-1.45-3.16-2.29-4.78-3.26
				c-0.9-0.54-2.09-1.12-3.07-1.44c-0.64-0.2-1.23-0.04-1.87-0.06c-1.08-0.02-1.92-0.86-2.93-1.18c-0.91-0.29-1.79-0.47-2.74-0.46
				c-0.61,0.01-1.2-0.07-1.79,0.12c-0.77,0.25-1.48,0.76-2.27,0.91c-0.52,0.1-1.08-0.09-1.57,0.17c-0.19,0.11-0.1,0.28-0.35,0.32
				c-0.3,0.05-1.06-0.65-1.22-0.9c-0.22-0.36-0.14-0.73-0.3-1.13c-0.28-0.7-1.08-1.1-1.59-1.58c-1.07-0.99-1.62-2.45-2.4-3.7
				c-0.56-0.88-0.92-2.16-1.17-3.3c-0.06-0.27-0.11-0.52-0.16-0.76c-0.19-0.97-0.63-1.88-0.81-2.85c-0.2-1.06-0.27-2.08-0.58-3.12
				c-0.3-0.94-0.79-1.8-1.15-2.72c-0.23-0.62-0.25-1.24-0.45-1.86c-0.41-1.24-1.07-2.45-1.41-3.73c0.78-0.62,1.69-1.19,2.23-1.96
				c0.31-0.42,0.4-0.42,0.89-0.75c0.54-0.38,0.79-0.75,1.23-1.28c0.64-0.75,1.29-1.3,1.65-2.28c0.36-1,1.02-1.68,1.45-2.64
				c0.23-0.5,0.38-0.99,0.67-1.45c0.25-0.39,0.58-0.74,0.84-1.15c0.64-0.96,1.15-2.02,1.78-2.98c0.61-0.95,0.77-1.56,0.61-2.73
				c-0.14-0.97-0.33-2.25-0.65-3.16c-0.61-1.74-1.26-3.43-1.77-5.19c1.72-0.05,3.48-0.7,5.12-1.03c0.9-0.19,2.17-0.23,3.02-0.65
				c0.26-0.12,0.28-0.32,0.46-0.41c0.33-0.17,0.8-0.12,1.12-0.1c0.28,0.01,1.26,0.09,1.49-0.17c0.2-0.21,0.24-0.79,0.23-1.11
				c0.02,0,0.04-0.01,0.06-0.02c0.32,0.04,0.77-0.01,1.26-0.1c0.14-0.01,0.29-0.04,0.41-0.09c1.46-0.35,3.08-1.01,3.02-1.2
				c-0.13-0.38,1.44-0.73,2.21-1.1c0.02,0.03,0.04,0.06,0.06,0.09c0.3,0.38,1.14,1.2,1.65,1.31c0.38,0.08,0.56-0.07,1,0.1
				c0.38,0.16,0.55,0.38,0.99,0.44c0.47,0.07,1.16,0.06,1.38-0.52c0.31-0.81-0.84-1.37-1.13-1.93c-0.3-0.6-0.19-1.22-0.38-1.85
				c-0.1-0.34-0.34-0.7-0.51-1.03c-0.42-0.8-0.6-1.35,0.13-2.01c0.45-0.4,0.66-0.73,1.19-0.41c0.45,0.28,0.5,0.54,1.11,0.74
				c0.45,0.15,0.86,0.04,1.31,0.07c0.43,0.04,0.74,0.3,1.13,0.48c0.46,0.2,1.04,0.28,1.48,0.56c0.55,0.34,0.97,0.96,1.4,1.43
				c0.44,0.5,0.97,0.97,1.38,1.5c0.57,0.73,0.77,1.14,1.57,1.63c0.91,0.56,1.8,0.7,2.81,0.44c0.17-0.83-0.97-1.49-1.46-1.94
				c-0.67-0.61-1.26-1.24-2-1.74c-1.27-0.86-2.5-1.42-3.6-2.58c-0.8-0.85-1.64-1.69-2.34-2.63c0.78-0.31,2.18,0.15,2.89,0.6
				c0.52,0.34,0.97,0.94,1.42,1.4c0.53,0.54,3.97,5.17,4.81,3.99c0.41-0.58-0.27-1.17-0.65-1.47c-0.63-0.5-1.13-0.65-1.62-1.38
				c-0.33-0.5-0.71-0.89-1.07-1.4c-0.54-0.77-1.56-2.16-1.43-3.18c1.43-0.93,2.81,1.06,3.55,2.04c0.96,1.26,2.95,3.57,4.65,2.7
				c0.15-0.44-1.12-0.97-1.42-1.21c-0.54-0.46-1.08-0.77-1.71-1.09c-1.09-0.55-1.59-1.63-2.31-2.63c-0.43-0.6-1.84-1.67-1.27-2.59
				c0.49-0.1,0.91,0.42,1.4,0.49c0.33,0.06,0.63-0.05,0.96,0.09c0.66,0.25,1.66,0.75,2.16,1.28c0.16,0.19,0.3,0.39,0.41,0.63
				c0.11,0.04,0.24,0.08,0.36,0.12c0.25,0.17,0.5,0.28,0.77,0.5c0.65,0.53,1.84,1.54,2.62,1.57c0.16-0.99-1.41-1.88-1.89-2.56
				c-0.44-0.6-0.54-1.35-1.01-1.94c-0.47-0.6-0.99-0.44-1.65-0.6c-1.32-0.34-2.6-0.86-3.86-1.36c-0.71-0.28-1.29-0.45-1.9-0.94
				c-0.67-0.56-1.31-1.16-2.04-1.62c-0.89-0.56-1.8-1.14-2.71-1.67c-1.08-0.61-2.2-1.42-3.13-2.26c-0.7-0.63-1-0.96-1.96-1.33
				c-0.89-0.37-1.83-0.58-2.71-0.93c-0.75-0.3-1.05-1.04-1.77-1.33c-0.64-0.26-1.35-0.32-2.01-0.49c-0.89-0.22-1.55-0.6-2.36-0.96
				c-0.59-0.25-1.34-0.4-1.87-0.77c-0.6-0.41-1.02-1.01-1.72-1.25c-1.23-0.45-2.68-0.61-3.95-0.9c-1.11-0.25-2.07-0.5-3.14-0.91
				c-0.88-0.35-2.15-1.04-3.11-0.9c-0.18,0.03-0.37,0.16-0.55,0.2c-0.49,0.12-1.05,0.03-1.54,0.03c-1.5-0.01-2.75,0.27-4.09-0.51
				c-1.58-0.9-3.42-1.63-4.79-2.9c-0.62-0.58-1.07-1.13-1.86-1.48c-1.41-0.63-2.66-1.63-4.11-2.17c-1.12-0.43-2.14-0.62-3.33-0.63
				c-0.61,0-0.95-0.07-1.39,0.4c-0.11,0.11-0.26,0.47-0.4,0.56c-0.37,0.24-0.95,0.13-1.36,0.13c-1.57-0.03-3.26-0.2-4.83-0.03
				c-0.91,0.09-1.78,0.35-2.71,0.23c-0.5-0.06-1.01-0.13-1.51-0.19c-0.87-0.12-1.68-0.15-2.5-0.52c-0.61-0.27-1-0.77-1.54-1.12
				c-1.46-0.97-3.59-1.57-5.24-1.86c-1.19-0.2-2.49-0.49-3.69-0.14c-0.39,0.12-0.71,0.41-1.12,0.46c-0.81,0.1-1.76-0.01-2.57-0.04
				c-0.32-0.01-0.66-0.08-0.96,0.04c-0.4,0.14-0.42,0.44-0.73,0.72c-0.58,0.54-1.27,0.43-1.89,0c-0.45-0.32-0.63-0.64-1.18-0.78
				c-0.22-0.06-0.29,0.17-0.5-0.05c-0.35-0.37,0.3-1.5,0.46-1.74c0.27-0.38,0.64-0.79,0.97-1.14c0.36-0.37,0.83-0.48,1.12-0.94
				c0.65-1.01,0.16-2.45,0.56-3.54c0.27-0.7,0.76-1.18,1.12-1.81c0.56-0.99,1.05-1.84,1.8-2.72c0.3-0.33,1.12-0.88,0.97-1.44
				c-1-0.33-1.8-0.66-2.87-0.64c-1.3,0.02-2.65,0.17-3.93-0.11c-0.63-0.13-1.21-0.41-1.85-0.44c-0.41-0.02-0.88,0.17-1.27-0.01
				c-0.45-0.21-0.83-0.79-1.22-1.13c-0.81-0.69-1.79-0.82-2.79-1.1c-1.02-0.28-1.83-0.39-2.88-0.38c-1.26,0.01-2.54,0-3.81,0
				c-1.72,0-3.44,0.02-5.16-0.02c-0.71-0.01-1.29,0.23-1.9,0.59c-0.55,0.32-0.63,1.15-1.11,1.61c-0.69,0.66-1.77,1.58-2.61,1.95
				c-0.64,0.29-1.27,0.24-1.85,0.77c-0.37,0.35-0.74,0.8-1.07,1.22c-0.58,0.7-0.51,1-0.23,1.82c0.27,0.8-0.17,1.49-0.34,2.31
				c-0.48,0.22-1.1,0.08-1.62,0.19c-0.92,0.21-1.72,0.31-2.64,0.42c-0.24-0.06-0.47-0.02-0.69,0.11c-0.06,0.11-0.12,0.21-0.19,0.3
				c-0.45,0.21-0.85-0.01-1.3,0.19c-0.15,1.14,1.75,1.98,1.34,3.01c-0.26,0.08-0.52,0.16-0.79,0.21c-0.16,0.23-0.36,0.42-0.59,0.55
				c-0.33,0.12-0.62,0.3-0.9,0.51c-0.07,0.28-0.13,0.55-0.2,0.83c-0.16,0.16-0.32,0.32-0.44,0.52c-0.06,0.2-0.15,0.39-0.27,0.57
				c-0.49,0.44-1.35-0.31-1.86-0.44c-0.6-0.16-1.09-0.55-1.71-0.54c-0.8,0-0.57,0.15-1.69-0.34c-1.4-0.6-2.71-1.44-4.14-1.96
				c-0.91-0.32-1.63-0.9-2.5-1.3c-0.79-0.35-1.61-0.41-2.4-0.76c-0.65-0.31-1.49-0.59-2.19-0.68c-0.74-0.1-1.24-0.1-1.93-0.49
				c-0.51-0.36-1.03-0.69-1.57-0.96c-0.66-0.19-1.32-0.4-1.96-0.65c-1.26-0.44-2.56-0.89-3.86-1.15c-1.06-0.21-2.05-0.25-3.11-0.58
				c-1.03-0.32-2.04-0.54-3.01-0.85c-1.18-0.36-2.32-0.82-3.42-1.62c-1.2-0.86-2.26-2.08-3.64-2.55c-0.65-0.18-1.26-0.44-1.84-0.81
				c-0.36-0.28-0.71-0.59-1.06-0.88c-0.65-0.44-1.31-0.45-2.01-0.66c-1.43-0.44-2.47-1.47-4.04-1.54c-0.84-0.04-1.71,0.04-2.56,0.04
				h-3.97c-1.63,0-3.27-0.01-4.9,0c-0.42,0-0.94,0.12-1.36-0.05c-0.15-0.19-0.34-0.33-0.56-0.43c-0.34-0.08-0.68-0.09-1.02-0.06
				c-1.12,0.03-2.24,0.01-3.36,0.01c-0.79,0-1.76-0.19-2.52-0.02c-0.46,0.1-0.44,0.3-0.74,0.68c0.19,0.47,0.63,0.48,1,0.67
				c0.51,0.24,0.88,0.62,1.28,1.05c0.72,0.75,1.47,1.36,2.41,1.75c0.22,0.09,0.66,0.25,0.89,0.08c0.1-0.08,0.11-0.4,0.22-0.51
				c0.58-0.61,1.5-0.19,2.08,0.14c1.04,0.58,2.12,1.09,3.14,1.71c0.35,0.21,0.63,0.5,0.97,0.74c0.45,0.34,1,0.48,1.42,0.85
				c0.36,0.29,1.25,1.08,1.27,1.61c-2.1-0.49-2.24-0.47-2.4-0.42c-0.16,0.62,2.38,1.48,2.82,1.39c0.37-0.25,0.76-0.4,1.18-0.5
				c0.99,0.12,1.97,0.28,2.95,0.47c0.89,0.12,1.76,0.05,2.63,0.17c1.36,0.19,2.67,0.22,4.03,0.21c0.94-0.01,1.5,0,2.38,0.46
				c1.04,0.55,1.94,1.49,3.04,1.91c0.14-0.01,0.29-0.01,0.42-0.02c0.52,0.17,0.94,0.5,1.28,0.97c0.68,0.53,1.32,0.69,1.96,1.25
				c0.67,0.6,1.36,1.14,2.03,1.7c1.11,0.94,2.18,1.91,3.01,3.25c0.69,1.11,1.41,1.75,2.42,2.52c0.85,0.67,1.52,1.26,2.55,1.5
				c1.72,0.39,3.31,1.41,5.03,1.56c0.7,0.06,1.13,0.08,1.8,0.44c0.96,0.53,1.63,0.73,2.71,0.88c0.74,0.1,0.98,0.63,1.56,1.18
				c0.67,0.64,1.25,1.09,1.98,1.59c0.73,0.51,1.26,1.32,1.95,1.89c0.56,0.49,1.21,0.82,1.77,1.29c0.6,0.54,0.98,0.98,1.75,1.31
				c0.72,0.3,1.45,0.27,2.14,0.63c0.71,0.57,1.48,1.04,2.3,1.4c0.81,0.34,1.61,0.7,2.41,1.09c0.78,0.28,1.43,0.37,2.24,0.49
				c0.78,0.11,1.3,0.61,1.98,1.05c0.76,0.47,1.56,0.91,2.28,1.45c1.84,1.38,3.52,3.12,5.56,4.17c0.54,0.32,1.11,0.47,1.72,0.45
				c0.15,0.02,0.29,0.05,0.44,0.08c0.54,0.55,1.05,1.13,1.57,1.71c0.23,0.18,0.47,0.36,0.69,0.54c1.19,1.12,2.12,2.83,2.96,4.27
				c0.38,0.65,0.88,1.27,1.22,1.93c0.34,0.65,0.41,1.27,0.85,1.83c0.36,0.45,0.98,1.27,1.5,1.51c0.48,0.23,0.93-0.11,1.39,0.09
				c1.76,0.74,1.91,3.02,2.98,4.37c0.34,0.39,0.74,0.69,1.19,0.9c0.52,0.46,1.07,0.88,1.65,1.25c1.43,0.75,2.56,0.43,4,0.6
				c0.64,0.08,1.34,0.39,1.98,0.55c0.37,0.1,0.55,0.17,0.88,0.35c0.94,0.49,1.84,1.12,2.77,1.64c0.95,0.53,1.64,1.37,2.56,1.97
				c0.61,0.39,1.23,0.62,1.82,1.02c1.3,0.87,2.66,1.63,4.09,2.23c0.71,0.3,1.83,1.01,2.62,1.04c0.53,0.02,0.4-0.21,0.86,0.14
				c0.61,0.45,1.21,2.24,1.48,2.94c0.35,0.88,0.28,0.73-0.14,1.38c-0.73,1.1-1.72,1.42-2.94,1.59c-2.2,0.31-4.11,1.79-6.15,2.65
				c-1.97,0.82-4.01,1.28-5.77,2.58c-1.01,0.73-1.96,1.53-2.94,2.31c-1.21,0.98-2.58,1.68-3.72,2.77c-1.09,1.06-1.78,2.39-3.03,3.25
				c-1.04,0.73-1.52,1.31-2.29,2.37c-0.56,0.76-1.1,1.24-1.78,1.86c-1.4,1.28-3.03,2.16-4.54,3.3c-0.92,0.69-1.86,1.45-2.74,2.2
				c-0.89,0.76-0.57,1.94-0.68,3.07c-0.01,0.1-0.02,0.21-0.04,0.31c-0.12,1.07-0.36,2.13-0.56,3.18c-0.2,1.1,0.25,1.38,0.95,2.22
				c0.57,0.69,0.88,1.42,1.42,2.1c0.67,0.88,1.67,1.49,2.39,2.35c0.95,1.14,1.76,2.28,2.99,3.1c0.77,0.52,1.58,0.97,2.36,1.47
				c1.07,0.66,2.11,1.08,3.01,2.05c0.71,0.78,0.82,1.19,1.84,1.63c1.62,0.71,3.45,0.69,4.85,1.99c0.96,0.88,1.5,1.82,2.67,2.5
				c1.14,0.65,2.39,0.97,3.54,1.61c1.13,0.64,2.11,1.39,3.14,2.21c2.3,1.83,4.67,3.52,6.8,5.58c-1.74,1.56-2.12,4.41-4.1,5.69
				c-0.43,0.27-0.9,0.38-1.35,0.63c-0.53,0.32-0.84,0.6-1.46,0.75c-1.54,0.36-3.18,0.78-4.74,1.01c-1.56,0.22-3.12-0.22-4.67,0.32
				c-0.84,0.3-1.35,0.87-1.95,1.58c-0.55,0.65-1.12,0.93-1.82,1.31c-0.39,0.22-0.78,0.26-0.77,0.8c0,0.09,0.02,0.18,0.05,0.25h-2.52
				v11.55h-0.14c0.04,0.05,0.09,0.08,0.14,0.13v0.21h0.25c127.99,106.57,201.12,191.86,242.8,255.84
				c55.79,85.63,55.25,133.08,54.5,142.26v100.8h-64.9v93.54h-116.81v-195.69h-57.78v-242.27h-66.55v296.5h-99.74v-131.55h-19.14
				v-50.67c-8.37-26.65-12.68-66.57-14.85-104.28c-1.44-25.17-1.93-49.36-2.04-67.96c-0.17-25.5-1.92-50.95-5.29-76.19l-0.29-2.16
				l-0.29,2.16c-3.38,25.24-5.13,50.69-5.29,76.19c-0.12,18.6-0.61,42.79-2.05,67.96c-2.17,37.71-6.47,77.63-14.84,104.28v50.67
				h-17.4v-20.62h-37v-103.51h-94.78v104.79h-34.5v131.46h-19.54v-72.17h-37.17v173.99h-36.43v-61.56h-53.6V1894.4h-35.34
				c0.07-0.21,0.14-0.41,0.21-0.62c0.22-1.03-0.15-2.3,0.15-3.28c0.2-0.44,0.45-0.85,0.74-1.24c0.17-0.47,0.22-0.94,0.13-1.43
				c-0.02-1.17-0.02-2.34-0.02-3.52v-14.35c0-1.89-0.16-3.93,0-5.83c0.06-0.77,0.37-1.25,0.56-1.98c0.14-0.61,0.16-1.43,0.13-2.16
				c-0.01-0.29-0.03-0.56-0.05-0.8c-0.12-0.67-0.28-1.32-0.49-1.97c-0.09-0.53-0.15-1.06-0.18-1.6c-0.17-0.9-0.51-1.75-0.71-2.65
				c-0.29-1.39-0.65-2.76-0.93-4.14c-0.19-1.08-0.56-2.09-0.73-3.14c-0.24-1.46-0.55-2.93-0.63-4.43c0.02-0.97,0.03-1.95,0.06-2.92
				c-0.07-0.53-0.23-1.04-0.5-1.49c-0.34-1.17-0.06-2.57-0.24-3.77c-0.34-2.16-0.63-4.56-1.23-6.64c-0.34-1.18-0.91-2.17-1.19-3.36
				c-0.34-1.78-0.7-3.54-1.11-5.29c-0.29-0.84-0.51-1.72-0.61-2.62c-0.15-2.41,0.54-5.14-0.09-7.48c-0.28-1.01-0.43-1.59-0.45-2.69
				c-0.04-1.77-0.66-3.38-0.63-5.15c0.02-0.97,0.01-1.96,0.01-2.94c0-0.97,0.18-2.12-0.05-3.07c-0.01-0.04-0.02-0.08-0.03-0.11
				c-0.24-0.82-0.75-1.26-0.41-2.21c0.11-0.31,0.25-0.65,0.41-0.99c0.29-0.58,0.66-1.12,1.15-1.39c0.66,0.47,0.62,0.92,0.72,1.64
				c0.21,1.62,0.66,3.04,0.63,4.69c-0.04,2.06,0.01,4.67,1.46,6.21c0.65,0.69,1.46,0.96,2.13,1.6c0.78,0.75,1.69,1.31,2.33,2.16
				c0.57,1.01,1.36,1.73,2.38,2.17c0.63,0.17,1.12,0.54,1.45,1.11c1.26,0.73,2.65,0.76,4.06,1.09c0.21,1.07,0.57,1.46,1.23,2.32
				c0.67,0.84-1.18-0.45-0.53,0.42c-0.02,0.56,1.04,1.81,1.2,2.12c0.5,0.94,1.1,2.01,1.32,3.08c1.02-0.14,0.52,0.95,0.65,1.56
				c0.16,0.69,0.52,1.36,0.85,1.97c0.02,0.47,0.21,0.84,0.57,1.1c0.29,0.26,0.57,0.52,0.83,0.81c0.6,0.78,0.72,1.8,1.46,2.48
				c1.22,1.12,3.31,1,4.8,0.77c1.2-0.2,2.07-0.64,2.87-1.47c0.73-0.73,1.47-1.29,2.29-1.96c-0.03-0.7-0.34-1.34-0.57-2
				c-0.15-0.61-0.24-1.24-0.28-1.88c-0.22-1.08-0.39-2.17-0.49-3.28c-0.06-1.46,0.04-2.94,0.04-4.4c0-0.66,0.32-2.47,0.03-2.99
				c-0.13-0.17-0.29-0.31-0.49-0.4c-0.11-0.33-0.2-0.68-0.29-1.02c-0.17-0.24-0.37-0.47-0.6-0.68c-0.29-0.11-0.59-0.16-0.91-0.13
				c-0.35-0.4-0.59-0.88-0.74-1.43c-0.31-0.7-0.68-1.36-1.09-2c-0.55-0.71-0.75-0.76-0.73-1.78c0.03-1.21-0.53-2.19-0.62-3.42
				c-0.1-1.34,0.02-2.74,0.02-4.08c0-3.1-0.02-6.18,0-9.26c0.01-0.76,0.03-1.52,0.05-2.27c0.15-0.72-0.07-1.16-0.63-1.3
				c-0.35,0.02-0.6-0.13-0.75-0.45c-0.32-0.2-0.64-0.26-1.01-0.14c-0.81-0.14-0.83-0.35-1.54-0.83c-0.73-0.5-1.61-0.82-2.38-1.26
				c-2.61-1.45-4.09-4.21-6.46-5.96c-0.57-0.42-1.18-0.76-1.71-1.25c-0.81-0.71-0.72-2.07-1.16-3.08c-0.5-0.85-0.87-1.75-1.14-2.71
				c-0.04-0.67-0.12-1.32-0.24-1.97c-0.13-0.43-0.4-1.06-0.74-1.29c-0.27,0.1-0.53,0.07-0.76-0.08c-0.21-0.29-0.46-0.52-0.77-0.68
				c-0.57-0.6-0.93-1.32-1.52-1.94c-1.31-1.36-3.12-1.54-4.58-2.66c-0.48-0.36-0.78-0.91-1.23-1.3c-0.18-0.14-0.36-0.27-0.56-0.38
				c-0.17-0.09-0.35-0.18-0.53-0.25c-0.35-0.2-0.62-0.47-0.81-0.84c-0.59-0.56-1.26-0.9-1.89-1.31c-0.55-0.35-0.85-0.5-1.14-1.22
				c-0.27-0.68-0.41-1.36-0.8-2.04c-0.41-0.71-0.96-1.35-1.41-2.05c0.75-1.15,0.35-3.17,0.35-4.5c0-1.51-0.25-3.28,0.02-4.74
				c0.25-1.27,1.22-1.7,2.04-2.47c0.56-0.51,0.92-1.2,1.42-1.8c0.75-0.92,1.04-2.11,1.03-3.43c-0.01-0.97-0.01-1.95,0.01-2.93
				c0.01-0.46,0.03-0.71-0.15-1.15c-0.14-0.33-0.38-0.25-0.5-0.71c-0.05-0.21,0.1-0.58,0.07-0.8c-0.05-0.46-0.36-0.83-0.5-1.23
				c-0.2-0.59-0.01-0.84-0.11-1.36c-0.12-0.56-0.48-0.69-0.64-1.24c-0.11-0.37,0-0.7-0.12-1.11c-0.06-0.2-0.36-0.75-0.47-0.91
				c-0.34-0.55-0.77-0.92-1.04-1.59c-0.49-1.17-1.24-2-2.28-2.66c-0.4-0.24-1.07-0.45-1.38-0.93c-0.51-0.8-0.29-1.52-1.31-1.77
				c-0.48-0.12-0.69-0.1-1.07-0.37c-0.31-0.21-0.3-0.41-0.65-0.53c-0.5-0.15-1.31,0.03-1.83,0.03c-1.44,0.01-2.8-0.18-4.15,0.35
				c-0.98,0.38-2.51,0.98-3.29,1.76c-0.36,0.38-0.61,0.91-0.99,1.31c-0.49,0.47-1.01,0.85-1.45,1.39c-1.1,1.31-2.32,2.7-3.25,4.17
				c-1.34,2.1-2.39,4.45-3.18,6.87c-0.32,0.99-0.44,1.86-0.64,2.81c-0.11,0.6-0.52,0.97-0.56,1.61c-0.04,0.51,0.18,0.82-0.09,1.37
				c-0.53,1.09-1.02,0.25-1.5-0.22c-0.33-0.33-0.9-0.42-1.23-0.74c-0.87-0.84-1.43-2.18-2.01-3.25c-0.23-0.46-0.41-1.02-0.71-1.44
				c-0.26-0.37-0.63-0.47-0.9-0.9c-0.62-1-1.11-2.17-1.69-3.2c-0.42-0.78-0.79-1.42-1.48-1.95c-0.73-0.56-1.33-1.14-1.83-1.97
				c-1.19-1.9-2.9-3.3-4.16-5.12c-0.45-0.68-0.76-1.45-1.21-2.12c-0.65-0.95-1.28-1.8-1.81-2.85c-0.75-1.51-1.95-2.7-2.58-4.26
				c-0.42-1.04-0.55-2.49-1.3-3.24c-0.48-0.47-0.53-0.72-0.82-1.28c-0.53-1-1.36-1.72-1.94-2.67c-0.28-0.43-0.56-0.95-0.75-1.42
				c-0.17-0.4-0.43-0.8-0.58-1.17c-0.27-0.63-0.08-1.82-1.04-1.81c0-3.26-0.63-6.86-0.61-10.13c0.01-1.24,0.1-2.38-0.67-3.42
				c-0.09-0.13-0.45-0.55-0.58-0.63c-0.32-0.2-0.96-0.15-1.18-0.58c0.08,0.33,0,0.55-0.1,0.86c-0.11,0.11-0.22,0.22-0.34,0.32
				c-0.12,0.27-0.18,0.54-0.17,0.84c-0.21,0.89-0.68,1.4-1.46,1.9c-0.53,0.37-1.44,0.7-2.03,0.29c-0.07-0.05-0.64-1.2-0.64-1.25
				c-0.53-0.59-1.17-0.37-1.72-0.75c-0.52-0.37-1.15-1.36-1.56-1.83c-0.5-0.58-0.91-1.22-1.42-1.8c-0.56-0.63-0.79-0.86-1.65-0.81
				c-1.13,0.06-1.67-0.89-2.9-0.72c-1.1,0.17-0.66,0.84-0.68,1.75c-0.04,1.16-0.57,0.96-1.5,0.93c-1.06-0.04-2.3-0.43-2.93,0.61
				c-0.22,0.37-0.32,0.94-0.47,1.35c-0.27,0.67-0.69,1.21-1.03,1.83c-0.17,0.33-0.37,0.14-0.32,0.63c0.02,0.08,0.63,0.65,0.63,0.65
				c0.57,0.5,1.26,0.79,1.83,1.29c0.57,0.49,1.08,0.97,1.51,1.64c0.63,0.99,1.37,1.93,1.96,2.95c0.53,0.88,0.78,1.9,1.66,2.48
				c0.62,0.4,1.33,0.28,1.92,0.62c0.36,0.2,0.22,0.19,0.69,0.33c0.25,0.07,0.4,0.09,0.66,0.2c1.01,0.45,2.41,1.71,3.09,2.59
				c0.39,0.52,0.39,1.14,0.82,1.64c0.16,0.19,0.5,0.37,0.63,0.61c0.19,0.32,0.16,0.81,0.28,1.17c0.62,1.92,2.06,3.64,3.17,5.23
				c0.69,0.98,0.79,1.85,1.27,2.88c0.29,0.62,0.66,1.24,0.97,1.87c0.16,0.34,0,0.66,0.41,0.91c0.47,0.28,0.91-0.35,1.45,0.17
				c0.18,0.17,0.44,0.99,0.55,1.19c0.29,0.54,0.55,1.13,0.84,1.67c0.26,0.51,0.73,0.84,0.85,1.42c0.07,0.3-0.16,0.8-0.06,1.11
				c0.12,0.41,0.35,0.39,0.48,0.69c0.13,0.27,0.11,0.75,0.26,0.99c0.29,0.48,0.8,0.51,1.04,1.12c0.17,0.47,0.14,0.89,0.38,1.34
				c0.36,0.68,1.04,1.06,1.53,1.62c0.57,0.67,0.48,1.16,0.61,2c0.17,1.12,0.42,2.25,0.88,3.29c0.58,1.38,1.78,2.14,2.36,3.54
				c0.35,0.87,0.92,1.42,1.35,2.22c0.32,0.6,0.39,1.39,0.71,2.02c0.58,1.15,1.55,2.07,2.21,3.16c0.54,0.9,0.84,1.93,1.27,2.89
				c0.54,1.15,1.61,2.19,1.95,3.44c0.1,0.43-0.03,0.89,0,1.31c0.04,0.59,0.35,1.1,0.61,1.61c0.88,1.72,1.47,3.57,2.23,5.38
				c-0.73,0.52-1.57-0.81-2.04-1.29c-0.57-0.55-1.4-0.68-2.1-1.05c-0.78-0.41-1.6-0.74-2.37-1.2c-0.76-0.45-1.12-1.18-1.71-1.82
				c-0.65-0.7-1.14-1.36-1.87-1.97c-0.49-0.42-0.78-0.76-1.14-1.29c-0.44-0.67-0.91-1.08-1.49-1.62c-1.06-0.99-1.83-2.22-3.04-2.99
				c-0.71-0.46-1.38-1.07-2.13-1.43c-0.4-0.16-0.73-0.13-1.15-0.16c-0.61-0.05-0.95-0.29-1.5-0.52c-0.45-0.2-0.86-0.11-1.33-0.13
				c-0.81-0.04-1.56-0.37-2.31-0.67c-0.57-0.23-1.12-0.56-1.73-0.67c-0.33-0.07-0.59,0.01-0.94-0.12c-0.63-0.26-0.87-0.45-1.52-0.52
				c-0.57-0.06-0.95-0.2-1.49-0.46c-1.29-0.64-2.69-1.48-3.74-2.5c-0.39-0.38-0.7-0.74-1.09-1.1c-0.36-0.37-0.58-0.59-0.64-1.16
				c-0.05-0.56,0.1-1.11,0.2-1.64c0.11-0.58,0.07-1.05,0.11-1.63c0.06-0.62,0.33-1.05,0.64-1.57c0.49-0.78,0.52-1.07,0.71-1.92
				c0.36-0.1,0.72-0.17,1.09-0.23c0.31-0.27,0.6-0.54,0.92-0.8c0.66-0.4,1.21-0.29,1.67-0.99c0.67-1.01,0.42-2.47,0.42-3.64v-8.5
				c0-0.84,0.09-1.73,0.01-2.56c-0.05-0.62-0.21-0.64-0.46-1.19c-0.27-0.56-0.2-0.85-0.58-1.34c-0.31-0.39-0.68-0.65-0.93-1.09
				c-0.42-0.73-0.38-1.43-0.84-2.1c-0.44-0.63-1.13-1.44-1.7-1.93c-0.7-0.61-1.47-0.65-2.12-1.38c-0.5-0.54-0.83-1.39-1.52-1.69
				c-0.97-0.44-2.43-0.13-3.48-0.13c-1.34,0.02-2.68,0.02-4.02,0c-0.27-0.01-0.53-0.02-0.81-0.02c-0.41,0.18-0.93,0.74-1.29,1.06
				c-0.82,0.74-0.69,1.22-1,2.22c-0.3,0.97-1.09,1.45-1.72,2.1c-0.51,0.53-0.77,1.62-0.93,2.52c-0.05,0.28-0.09,0.54-0.13,0.76
				c-0.14,0.81,0.03,1.7-0.24,2.5c-0.28,0.76-0.37,1.17-0.46,1.95c-0.09,0.76-0.66,1.27-0.94,1.94c-0.29,0.67-0.47,1.57-0.31,2.32
				c0.13,0.63,0.51,0.89,0.63,1.58c0.15,0.82,0.36,1.57,0.61,2.36c0.2,0.61,0.39,0.68,0.77,1.18c0.02,0.03,0.05,0.07,0.07,0.11
				c0.58,0.92,0.65,2.86,0.23,3.83c-0.09,0.01-0.16,0-0.23-0.04c-0.24-0.08-0.37-0.34-0.59-0.54c-0.43-0.35-0.98-0.58-1.47-0.82
				c-0.55-0.28-0.89-0.35-1.14-0.89c-0.05-0.25-0.1-0.5-0.16-0.73c-0.15-0.1-0.28-0.19-0.43-0.27c-1.69-1.96-3.16-3.96-5.1-5.71
				c-0.55-0.5-1.11-0.83-1.54-1.48c-0.26-0.39-0.62-0.96-0.8-1.39c-0.44-1.01-0.84-1.92-1.35-2.94c-0.55-1.09-1.32-2.35-1.51-3.58
				c-0.23-1.53-0.75-2.7-1.78-3.77c-1.09-1.11-1.66-2.51-2.4-3.91c-0.37-0.7-0.82-1.39-1.16-2.12c-0.56-1.16-0.73-2.41-1.11-3.64
				c-0.18-0.6-0.43-1.18-0.6-1.79c-0.37-1.38-0.35-2.83-1.03-4.12c-0.89-1.66-1.67-3.29-2.42-5.03c-0.7-1.58-1.73-2.89-2.26-4.55
				c-0.55-1.75-1.68-3.21-2.48-4.84c-0.54-1.09-1.17-2.08-1.89-3.02c-0.22-0.28-0.62-0.6-0.77-0.94c-0.21-0.49-0.07-0.93-0.13-1.45
				c-0.16-1.05-0.95-1.96-0.54-3.11c0.55,0,0.7-0.6,0.98-1.01c0.58-0.84,1.29-1.57,1.98-2.3c0.84-0.91,1.41-1.57,1.95-2.72
				c0.29-0.58,0.73-1.25,1.07-1.77c0.43-0.66,0.99-0.89,1.35-1.7c0.37-0.87,0.86-1.72,1.13-2.63c0.5-1.73,0.26-3.44-0.39-5.03
				c-0.46,1.4-1.22,2.86-2.43,3.63c-0.44,0.26-0.91,0.41-1.33,0.72c-0.46,0.35-0.84,0.96-1.34,1.22c-0.86,0.44-3.15,0.28-3.99-0.04
				c-0.29-0.11-0.8-0.39-1.07-0.56c-0.48-0.29-0.52-0.69-0.86-1.22c-0.32-0.52-0.81-0.95-1.2-1.42c-1.09-1.33-1.84-2.79-2.56-4.39
				c-0.51-1.15-1.01-2.12-1.75-3.08c-0.54-0.67-1.12-1.44-1.51-2.23c-0.68-1.38-1.17-2.24-2.16-3.41c0.15,1.29,0.23,2.67,0.33,3.98
				c0.1,1.18,0.35,3.2-0.09,4.25c-0.54,0.1-0.85-0.75-1.21-1.09c-0.52-0.48-1.49-1.15-2.19-0.75c-0.15,0.77-0.23,1.8-0.13,2.59
				c0.1,0.69,0.65,1.15,0.58,1.87c-0.67,0.09-0.99-0.62-1.65-0.53c-0.3,0.66-0.17,1.91-0.12,2.63c0.09,1.24,0.76,2.31,1.52,3.19
				c1.41,1.64,3.29,3.64,4.07,5.72c0.56,1.51,1.76,2.7,2.57,4.08c0.6,1.04,1.09,2.03,1.77,2.95c0.6,0.77,0.21,1.85,0.37,2.84
				c0.27,1.66,0.6,3.37,0.92,5.03c0.25,1.33,0.58,2.69,1.13,3.9c0.45,0.97,0.53,1.94,0.91,2.87c0.36,0.9,0.17,1.73,0.42,2.64
				c0.19,0.7,0.38,0.62,0.57,1.6c0.17,0.99,0.22,2.03,0.53,2.97c0.36,1.07,0.78,2.19,1.18,3.25c0.39,1.02,0.97,1.92,1.2,3
				c0.18,0.84,0.45,1.71,0.66,2.55c0.31,1.13,1.13,1.95,1.77,2.85c1.21,1.7,1.62,4.23,2.06,6.28c0.09,0.41,0.35,0.61,0.49,1
				c0.22,0.65,0.09,1.34,0.12,2.01c0.06,1.65,1.07,2.98,1.22,4.57c0.12,1.1,0.14,2.04,0.59,3.08c0.31,0.69,0.61,1.02,0.62,1.82
				c0.01,0.99-0.02,1.72,0.42,2.63c0.52,1.11,1.06,2.11,1.5,3.26c0.47,1.25,1.28,2.73,1.98,3.84c0.58,0.89,1.29,1.57,1.76,2.55
				c0.98,2.04,1.24,4.16,1.98,6.24c0.19,0.53,0.5,1.05,0.64,1.59c0.22,0.85-0.02,1.65,0.26,2.47c0.27,0.83,0.58,1.68,0.92,2.46
				c0.26,0.64,0.59,1.11,0.9,1.71c0.77,1.56,0.74,3.44,1.16,5.1c0.26,0.99,0.7,1.41,1.1,2.23c0.61,1.21,0.71,2.61,1.17,3.89
				c0.26,0.74,0.66,1.57,1.1,2.23c0.37,0.53,0.63,0.7,0.77,1.32c0.1,0.42-0.02,0.97,0.09,1.44c0.17,0.73,0.37,1.28,0.47,2.01
				c0.21,1.48,0.68,2.2,1.42,3.42c0.27,0.42,0.42,0.9,0.74,1.25c0.4,0.43,0.8,0.63,1.14,1.15c0.66,0.99,1.16,2.06,1.65,3.15
				c0.44,1.02,1.3,1.83,1.39,2.94c0.11,1.28-0.04,2.66-0.05,3.94c-0.03,2.33,0.43,4.66,0.61,6.97c0.05,0.73,0.29,1.05,0.47,1.69
				c0.23,0.74,0.16,1.44,0.15,2.19c-0.02,1.21,0.06,2.36-0.16,3.54c-0.17,0.91-0.47,1.77-0.75,2.63c-0.33,1.06-0.46,2.17-0.7,3.25
				c-0.24,1.03-0.8,1.89-0.99,2.92c-0.23,1.16-0.1,2.21-0.46,3.36c-0.44,1.37-1.2,2.63-1.41,4.1c-0.15,1.07,0.03,2.15-0.17,3.24
				c-0.28,1.53-0.91,2.98-1.26,4.48c-0.2,0.83-0.06,1.65-0.11,2.49c-0.06,1.42-0.41,2.77-0.56,4.17c-0.2,1.85-0.05,3.79-0.05,5.64
				c0,2.13-0.02,4.26-0.01,6.39c0.02,2.31,0.08,4.27-0.59,6.47c-0.71,2.38-0.73,4.84-1.21,7.27c-0.65,3.19-0.03,6.46-0.27,9.69
				c-0.04,0.73-0.32,1.27-0.49,1.97c-0.22,0.88-0.16,1.86-0.16,2.75c0.06,3.26,0.02,6.26-0.77,9.43c-0.63,2.46-1.55,5-1.65,7.6
				c-0.04,0.98,0.04,1.99,0.04,2.98v4.04c0,2.4,0.27,4.99,0.03,7.37c-0.07,0.67-0.37,1.29-0.5,1.95c-0.1,0.54-0.13,1.07-0.14,1.6
				h-26.05v232.23h-42.14v-63.28h-64.43v126.1h-25.78v-342.57H783.58v245.87h-44.84v-56.97h-19.53v-43.34h-41.16v53.29H650.2v-44.1
				h-18.29v-29.12h-35.75v220.11h-11.89l4.83-646.7c-2.43,28.6-7.63,56.85-17.63,81.47c-3.75,9.25-8.18,18-13.39,26.06
				c-7.09,10.95-16.11,19.93-26.06,27.57c-10.44,8.02-21.91,14.57-33.25,20.4c-11.12,5.7-22.75,11.2-33.14,18.11
				c-16.13,10.71-29.32,24.81-33.13,48.29c-5.36,32.97-3.5,66.55-2.16,99.81c1.45,35.45,0.95,70.96,0.95,106.44h-30.11v26.59H347.5
				v-43.97l-16.15-18.99l-36.16,18.99v286.85h-37.25v-209.32h-61.65c-9.62-45.94-11.65-112.41-11.9-152.68
				c-0.15-25.49-1.91-50.95-5.28-76.19l-0.3-2.16l-0.29,2.16c-3.36,25.24-5.12,50.7-5.28,76.19
				c-0.29,46.47-2.93,127.81-16.89,172.25v48.46H91.33l-114.61,124.62v110.49h-80.82l-49.86,54.21v39.61h-245.07v69.28H2584v1.61
				h363.97v-1.61h1704.6v1.61h1812.3v-71.2H6137.03z M1794.08,1734.27h-1.83C1792.86,1734.23,1793.47,1734.23,1794.08,1734.27z
				 M1756.43,1630.94c-0.02-0.69,0.3-1.2,0.54-1.83c0.23-0.62,0.68-0.69,1.07-1.17c0.46-0.58,0.37-1.44,1.31-1.28
				c0.42,0.08,0.61,0.32,0.98,0.48c0.38,0.15,0.76,0.13,1.18,0.12c0.83-0.02,1.45-0.06,2.24,0.25c0.71,0.29,1.19,0.27,1.95,0.27
				c1.06-0.01,2.52-0.08,3.46,0.49c1.52,0.9,2.62,2.79,3.55,4.28c0.82,1.32,0.81,2.43,0.79,3.97c0,0.39-0.04,0.73,0,1.06
				c-1.71,0.12-3.39,0.22-3.48,0.07c-0.86-1.47-2.37-1.99-3.84-1.4c-0.35,0.14-0.75,0.22-1.09,0.41c-0.3,0.15-0.3,0.36-0.69,0.42
				c-0.81,0.14-1.75-0.03-2.58-0.03c-0.82,0.01-1.3,0.06-1.97-0.52c-0.66-0.56-1.34-0.96-1.96-1.6c-0.58-0.59-1.07-1-1.36-1.85
				C1756.32,1632.42,1756.44,1631.64,1756.43,1630.94z M1727.95,1626.19c0.32-0.65,3.46-0.26,4.03-0.26h3.4
				c0.57,0,1.12-0.06,1.64-0.03c0.15,0.14,0.3,0.27,0.47,0.41c0.59,0.47,1.05,0.76,1.54,1.41c1.04,1.39,2.16,2.72,3.02,4.24
				c0.8,1.39,1.6,2.65,2.51,3.95c0.54,0.77,0.69,1.38,1.1,2.18c0.27,0.51,0.69,0.92,0.96,1.42c0.6,1.13,1.52,2.27,1.76,3.55
				c0.34,1.77,0.76,3.6,1.32,5.32c0.43,1.33,0.99,3.02,0.86,4.47c-0.05,0.51-0.28,0.95-0.39,1.44c-0.09,0.45-0.04,0.99-0.03,1.41
				c0.03,1.34-0.43,2.49-0.46,3.82c-0.01,0.41,0.09,0.82-0.02,1.24c-0.09,0.35-0.28,0.65-0.4,0.99c-0.35,0.95-0.39,1.88-0.41,2.83
				c-0.13-0.35-0.28-0.7-0.46-1.04c-0.35-0.72-0.5-1.47-0.96-2.11c-0.24-0.34-0.38-0.71-0.6-1.06c-0.24-0.39-0.62-0.61-0.89-0.97
				c-0.41-0.6-0.49-1.37-0.93-1.96c-0.98-1.33-2.43-2.28-3.67-3.28c-1.2-0.96-1.5-2.51-2.18-3.87c-0.68-1.35-0.95-2.68-1.26-4.17
				c-0.22-1.06-0.15-2.19-0.69-3.14c-0.23-0.41-0.58-0.75-0.78-1.18c-0.1-0.24-0.12-0.5-0.24-0.73c-0.35-0.59-0.65-1.22-1-1.83
				c-0.45-0.8-1.13-1.42-1.6-2.19c-0.38-0.61-0.65-1.17-1.13-1.72c-1.39-1.59-3.17-3.23-4.19-5.16c-0.27-0.53-0.35-0.97-0.35-1.57
				C1727.92,1628.04,1727.71,1626.7,1727.95,1626.19z M1738.3,1729.49c-0.02-0.83,1.21-1.44,1.7-1.91c0.4-0.39,0.88-0.52,1.23-0.98
				c0.27-0.33,0.59-0.69,0.85-1.04c0.42-0.55,0.24-1.33,0.22-2.01c-0.03-0.89-0.2-1.42,0.46-1.89c0.66-0.46,1.28-0.16,1.95-0.43
				c0.2-0.99-2.28-2.54-2.97-3.09c-0.94-0.75-2.09-1.24-3.07-1.9c-1.17-0.79-2.22-1.74-3.29-2.66c-2.29-1.98-4.82-3.58-7.6-4.63
				c-0.66-0.25-1.08-0.44-1.44-1.15c-0.35-0.7-0.59-0.86-1.07-1.46c-0.8-1.02-1.26-2.45-1.93-3.57c-0.89-1.5-2.05-2.77-2.94-4.25
				c-0.55-0.91-1.01-1.34-1.95-1.85c-0.98-0.55-1.98-1.12-2.98-1.63c-0.84-0.43-1.24-0.4-2.1-0.59c-1.24-0.29-2.54-0.89-3.73-1.41
				c-1.38-0.6-2.49-1.29-3.41-2.5c-0.08-0.23-0.19-0.43-0.33-0.6c-0.1-0.13-0.22-0.24-0.35-0.35c-0.36-0.01-0.55-0.18-0.56-0.49
				c1.64-0.3,3.25-0.5,4.89-0.93c0.87-0.23,1.76-0.5,2.61-0.78c0.3-0.01,0.55-0.15,0.73-0.4c0.76-0.18,1.53-0.25,2.32-0.2
				c1.72-0.08,3.38-0.21,5.07-0.57c1.12-0.24,2.27-0.1,3.42-0.27c0.83-0.21,1.68-0.34,2.53-0.41c0.44,0.05,0.77-0.11,0.99-0.48
				c0.59,0.02,1.8,1.08,2.06,1.65c0.01,0.36,0.05,0.7,0.13,1.04c0.11,0.41,0.23,0.82,0.37,1.23c0.12,0.33,0.25,0.65,0.38,0.96
				c0.21,0.48,0.43,0.95,0.61,1.43c0,0.44,0.15,0.82,0.44,1.16c0.41,0.58,0.84,1.15,1.3,1.72c0.56,0.83,0.93,1.74,1.39,2.64
				c0.69,1.37,1.67,2.44,2.25,3.88c0.52,1.28,1.02,2.37,1.2,3.75c0.1,0.75,0.34,1.68,0.69,2.35c0.29,0.35,0.59,0.7,0.88,1.05
				c0.32,0.42,0.65,0.82,1,1.19c0.28-0.02,0.55,0.01,0.83,0.09c0.23,0.21,0.46,0.43,0.66,0.69c0.66,0.64,1.39,1.37,2.13,1.9
				c1.09,0.79,2.68,0.98,3.9,1.47c1.82,0.71,3.46,2.06,5.4,2.41c1.46,0.27,2.94-0.04,4.41,0.03c1.33,0.06,2.54,0.69,3.77,1.13
				c1.29,0.45,2.56,0.53,3.86,0.87c0.67,0.11,1.29,0.35,1.89,0.7c0.27,0.3,0.59,0.49,0.97,0.56c1.32,0.25,2.88-0.09,4.23-0.05
				c0.98,0.03,1.96,0.17,2.91,0.4c1.04,0.27,2.31,0.28,3.29,0.78c1.56,0.81,2.02,3.02,2.94,4.47c0.7,1.1,1.39,1.74,1.7,3.08
				c0.39,1.63,0.75,3.23-0.61,4.37c-0.75,0.65-1.52,1.33-2.23,2.03c-0.08,0.07-0.17,0.15-0.27,0.23h-55.84
				c1.23-0.3,2.46-0.68,3.55-1.21c0.32-0.13,0.42-0.33,0.84-0.38c1.14-0.12,2.3,0.08,3.45-0.1c1.16-0.17,2.16-0.64,3.34-0.33
				c1.84,0.46,3.61,1.47,5.52,1.46C1741.43,1731.87,1738.34,1731.18,1738.3,1729.49z M1127.5,1875.06c2.54-0.26,1.48-0.38,2.92-1.03
				c0.99-0.44,2.26-0.21,3.32-0.54c1.12-0.33,2.14-0.83,3.32-0.94c0.58-0.05,0.73-0.15,1.22-0.44c1.22-0.74,2.35,0.4,3.54,0.49
				c0.27,0.02,0.96-0.23,1.21,0.07c0.33,0.39,0.1,2.38,0.1,2.62c-0.02,2.27,0.47,5.05-0.57,7.13c-0.38,0.75-1.03,1.46-1.21,2.27
				c-0.12,0.56-0.03,1.16-0.03,1.73c-0.03,1.9,0.24,2.92,1.23,4.46c0.43,0.66,0.4,1.3,0.84,1.95c0.4,0.56,0.79,0.98,1.08,1.57
				h-32.65c-0.57-1.38-1.12-2.78-1.4-4.22c-0.36-1.77,0.23-3.5-0.36-5.21c-0.16-0.48-0.5-0.95-0.3-1.5c0.29-0.8,1.39-1.87,1.82-2.55
				c0.41-0.66,0.83-1.31,1.22-1.99c0.29-0.51,0.65-1.88,1.13-2.24c0.48-0.37,1.34-0.38,1.9-0.58c0.81-0.3,1.51-0.88,2.39-0.97
				C1121.27,1874.84,1124.41,1875.39,1127.5,1875.06z M1090.21,1771.12c0.23-0.53,0.5-1.02,0.81-1.49c0.33-0.65,0.53-1.33,0.61-2.07
				c0.15-0.89,0.34-1.72,0.66-2.57c0.13-0.36,0.29-0.87,0.63-1.1c0.36-0.24,0.62-0.07,0.94-0.39c0.39-0.44,0.78-0.93,1.15-1.38
				c0.3-0.4,0.39-0.86,0.64-1.27c0.49-0.09,1.15,0.47,1.65,0.58c0.53,0.1,1.05,0.07,1.57,0.23c0.46,0.14,0.91,0.37,1.38,0.44
				c0.45,0.07,0.9,0,1.35,0.04c0.7,0.06,1.39,0.24,2.06,0.41c0.53,0.15,1.05,0.24,1.56,0.49c0.56,0.27,1.06,0.66,1.57,1.04
				c0.64,0.51,1.27,1.19,2.01,1.51c0.59,0.26,1.3,0.29,1.9,0.42c0.78,0.18,1.64,0.39,2.34,0.76c0.49,0.24,0.9,0.63,1.36,0.93
				c0.36,0.23,0.78,0.47,1.18,0.56c0.39,0.11,0.82,0.03,1.21,0.14c0.26,0.07,0.38,0.19,0.58,0.34c0.12,0.09,0.11,0.23,0.31,0.24
				c-2.09,0.02-2,0.14-1.86,0.24c0.08,0.18,0.1,0.39,0.06,0.58c0.04,0.27,0.21,0.39,0.3,0.64c0.12,0.34,0.28,0.67,0.32,1.01
				c0.02,0.31-0.04,0.63-0.03,0.92c0.03,0.41,0.2,0.64,0.28,1.01c0.09,0.37,0.04,0.78,0.04,1.15c-0.01,0.33-0.04,0.6,0.06,0.91
				c0.17,0.06,0.26,0.2,0.26,0.42c-0.01,0.51-0.03,1.02-0.04,1.52c0.04,0.78,0.22,1.59,0.32,2.38c0.09,0.61,0.16,1.34,0.44,1.89
				c0.51,1.05,1.49,1.73,1.81,2.86c0.02,0.22,0.07,0.44,0.15,0.64c0.17,0.25,0.3,0.52,0.38,0.83c0.07,0.51,0.1,1.02,0.1,1.52
				c0,0.43,0.02,0.86,0.09,1.29c0.04,1.11-0.8,2.22-1.31,3.16c-0.33,0.57-0.71,1.11-1.05,1.68c-0.51,0.81-0.91,1.68-1.42,2.49
				c-0.68,1.09-1.32,2.18-1.93,3.3c-0.82,1.47-1.79,2.81-2.46,4.38c-0.41,0.94-0.98,1.83-1.36,2.78c-0.5,1.24-0.56,2.68-0.96,3.97
				c-0.62,1.97-1.07,4.09-1.29,6.16c-0.03,0.84-0.07,1.69-0.12,2.53c-0.12,0.54-0.29,1.07-0.49,1.57c-0.21,0.93-0.01,2.06-0.09,3
				c-0.19,1.9-0.84,3.51-1.39,5.28c-0.42,1.32-0.68,2.69-0.94,4.05c-0.23,1.17-0.45,2.3-0.86,3.41c-0.54,1.55-1.11,2.8-1.15,4.48
				c-0.03,1.24,0.01,2.49,0.02,3.71c0,0.17,0.1,0.76-0.07,0.81c-0.4-0.36-0.23-1.15-0.22-1.63c0.02-1.1-0.39-1.93-0.56-3
				c-0.18-1.1,0.05-2.2-0.04-3.3c-0.06-0.8-0.4-1.61-0.62-2.36c-0.23-0.53-0.31-1.08-0.27-1.66c0.07-0.53,0.04-1.05-0.08-1.56
				c-0.21-1.04-0.44-2.12-0.69-3.15c-0.31-1.29-0.53-2.62-0.91-3.89c-0.28-1.01-0.38-2.05-0.6-3.06c-0.4-1.86-1.06-3.61-1.43-5.49
				c-0.09-0.85-0.2-1.71-0.36-2.55c-0.17-0.76-0.37-1.52-0.61-2.25c-0.38-1.24-0.75-2.46-1.07-3.72c-0.1-0.47-0.23-0.94-0.37-1.4
				c-0.04-0.33-0.07-0.69-0.12-1.03c-0.19-0.35-0.34-0.73-0.47-1.1c-0.09-0.62-0.2-1.21-0.36-1.79c-0.35-1.13-0.66-2.14-0.83-3.32
				c-0.21-1.36-0.47-2.67-0.82-4c-0.14-0.57-0.32-1.13-0.55-1.67c-0.29-0.58-0.54-1.17-0.77-1.79c-0.27-0.92-0.43-1.95-0.6-2.89
				c-0.15-0.91-0.05-1.9-0.05-2.82v-1.93c0-0.64-0.1-1.36-0.02-2c0.04-0.23,0.12-0.42,0.25-0.6c0.1-0.31,0.13-0.63,0.07-0.96
				c-0.01-0.7,0.07-1.43-0.06-2.14c-0.22-1.22-0.55-2.36-0.56-3.62C1090.77,1773.61,1089.87,1772.4,1090.21,1771.12z
				 M1060.45,1890.74c0.12-0.97,0.3-1.49,0.6-2.51c0.43-1.39,0.61-2.82,1-4.23c0.37-1.3,0.71-2.49,0.83-3.84
				c0.11-1.11,0.32-2.17,0.59-3.25c0.53-2.15,0.71-4.24,1.05-6.42c0.43-2.82,0.48-5.5,0.44-8.35c-0.04-2.78,0.67-5.45,0.63-8.24
				c-0.02-2.13,0.01-4.26-0.02-6.39c-0.02-2.06,0.42-3.96,0.93-5.96c0.62-2.37,2.14-4.07,3.32-6.12c1.11-1.97,1.44-4.27,1.77-6.52
				c0.1-0.7,0.27-1.12,0.48-1.79c0.19-0.67,0.09-1.27,0.27-1.95c0.24-0.91,0.36-1.82,0.75-2.73c0.63,1.54,0.7,3.14,1.18,4.74
				c0.66,2.24,1.91,4.1,2.95,6.12c1.34,2.6,3.43,4.69,4.63,7.45c0.43,0.97,0.64,2.07,1.12,3c0.34,0.63,0.82,1.15,1.11,1.81
				c0.77,1.8,0.51,3.71,0.85,5.57c0.51,2.78,1.12,5.68,1.92,8.37c0.34,1.15,0.55,2.31,0.79,3.48c0.1,0.41,0.19,0.82,0.29,1.25
				c0.26,0.49,0.62,0.89,1.04,1.19c0.46,0.27,0.69,0.71,0.7,1.3c0.04,0.38,0.07,0.76,0.1,1.15c0.21,1.48,0.6,3.01,1.06,4.42
				c0.31,0.93,0.48,2.04,0.96,2.88c0.35,0.63,0.9,1.05,1.24,1.72c0.55,1.15,0.68,2.58,1.01,3.82c0.25,0.99,0.53,1.94,0.7,2.95
				c0.13,0.71,0.54,1.25,0.63,1.95c0.1,0.75-0.13,1.49,0.01,2.24c0.13,0.76,0.47,1.48,0.73,2.19c0.29,0.85,0.4,1.56,0.49,2.47
				c0.08,0.69,0.26,1.28,0.47,1.89h-37.25C1060.08,1893.17,1060.3,1891.94,1060.45,1890.74z M1165.14,2148.47h-118.92V1923.9h118.92
				V2148.47z M3722.75,1802.56c0.71-0.85,0.5-1.55,0.27-2.6c-0.21-1.05-0.2-2.04-0.2-3.12c0-2.22-0.25-3.94,1.02-5.8
				c0.5-0.73,0.78-1.52,1.23-2.28c0.42-0.69,1.01-1.07,1.44-1.75c0.39-0.65,0.89-1.41,1.13-2.1c0.54-1.52,0.72-3.09,1.42-4.58
				c0.49-1.04,1.03-2.04,1.51-3.08c0.71-1.55,1.98-2.6,2.74-4.06c0.6-1.14,1.02-2.13,1.79-3.17c1.13-1.57,2.49-3.51,3.15-5.33
				c1.69-4.65,0.97-10.22,0.97-15.15c0-2.02-0.21-3.85,0.58-5.71c1.52-3.57,3.21-7.17,5.15-10.49c0.81-1.4,1.74-3.05,2.02-4.69
				c0.17-1.01,0.04-2.13,0.04-3.15c0-2-0.36-4.41,0.37-6.25c0.69-1.73,1.95-3.16,3.72-3.13c2.64,0.04,6.11,0.88,7.65,3.51
				c0.78,1.37,1.32,2.91,2.04,4.31c0.87,1.71,1.01,3.25,1.4,5.15c0.24,1.17,0.29,2.55,0.86,3.54c0.33,0.58,0.88,0.97,1.22,1.52
				c0.66,1.05,0.73,2.26,1.07,3.44c0.76,2.61,2.14,5.07,3.38,7.44c1.03,1.98,1.9,4.24,3.32,5.93c0.91,1.07,1.47,2,1.84,3.44
				c0.66,2.69,1.72,5.09,2.5,7.73c0.36,1.24,0.91,2.66,1,3.96c0.04,0.62-0.06,1.13,0.05,1.74c0.13,0.63,0.49,1.1,0.65,1.71
				c0.01,0.03,0.02,0.07,0.03,0.1c0.19,0.87,0.08,1.79,0.05,2.67c-0.02,1.46,0.19,2.25,0.84,3.57c0.44,0.91,0.64,1.7,0.92,2.67
				c0.23,0.84,0.5,2.2,0.9,2.94c0.33,0.59,1.03,1.13,1.46,1.63c0.89,1.05,1.24,2.01,1.82,3.27c0.37,0.77,1.15,1.14,1.41,1.93
				c0.28,0.86-0.1,1.83,0.23,2.72c0.47,1.28,0.64,1.78,0.63,3.13c-0.01,1.03,0.15,1.66,0.72,2.46c0.4,0.57,0.95,0.95,1.37,1.48
				c0.53,0.69,0.47,1.41,1.19,2.09c0.34,0.33,0.53,0.33,0.8,0.73c0.24,0.39,0.22,0.9,0.42,1.29c0.18,0.32,0.48,0.53,0.72,0.78
				h-69.24C3722.48,1802.87,3722.62,1802.73,3722.75,1802.56z M3803.41,2186.74h-93.8v-46.54h1.38v-314.26h92.42V2186.74z
				 M4310.53,1625.79l-2.89-5.01l-2.67-4.63l-1.84-3.19h7.4V1625.79z M4310.53,1611.19h-7.4l1.84-3.2l2.67-4.63l2.89-5.01V1611.19z
				 M4312.21,1598.35l2.89,5.01l2.67,4.63l1.84,3.2h-7.4V1598.35z M4312.21,1625.79v-12.83h7.4l-1.84,3.19l-2.67,4.63
				L4312.21,1625.79z M4533.37,1625.79l-2.89-5.01l-2.67-4.63l-1.84-3.19h7.4V1625.79z M4533.37,1611.19h-7.4l1.84-3.2l2.67-4.63
				l2.89-5.01V1611.19z M4535.05,1598.35l2.89,5.01l2.67,4.63l1.84,3.2h-7.4V1598.35z M4535.05,1625.79v-12.83h7.4l-1.84,3.19
				l-2.67,4.63L4535.05,1625.79z"/>
		</g>
		<g style="clip-path:url(#SVGID_00000068663527117876179170000011450156345655539073_);">
			<path style="fill:#A7A9AC;" d="M1652.752,678.364h46.61v68.079c0,15.813-6.252,23.715-18.758,23.715
				c-4.675,0-9.033-1.329-13.074-3.987c-4.044-2.658-7.896-6.574-11.558-11.755l-17.053,22.08
				c4.799,6.68,10.957,11.826,18.474,15.436c7.514,3.61,15.756,5.417,24.726,5.417c15.662,0,27.536-4.36,35.622-13.084
				c8.082-8.721,12.126-21.942,12.126-39.662v-92.816h-77.116V678.364z"/>
			<path style="fill:#A7A9AC;" d="M1836.918,651.787l-59.116,143.108h31.453l11.819-30.666h61.482l11.773,30.666h32.21
				l-59.306-143.108H1836.918z M1830.766,739.083l21.109-54.769l21.027,54.769H1830.766z"/>
			<polygon style="fill:#A7A9AC;" points="2101.613,651.787 2067.508,651.787 2008.771,718.568 2008.771,651.787 1978.266,651.787 
				1978.266,794.895 2008.771,794.895 2008.771,758.77 2026.544,738.752 2069.024,794.895 2104.834,794.895 2046.703,715.546 			"/>
			<path style="fill:#A7A9AC;" d="M2192.182,651.787l-59.116,143.108h31.453l11.819-30.666h61.482l11.773,30.666h32.21
				l-59.306-143.108H2192.182z M2186.03,739.083l21.109-54.769l21.027,54.769H2186.03z"/>
			<path style="fill:#A7A9AC;" d="M2421.634,748.896c8.588-4.089,15.22-9.982,19.895-17.684c4.671-7.699,7.01-16.867,7.01-27.497
				c0-10.765-2.339-20.035-7.01-27.804c-4.675-7.769-11.307-13.729-19.895-17.889c-8.591-4.156-18.823-6.235-30.695-6.235h-57.411
				v143.108h30.695v-39.866h26.716c0.485,0,0.95-0.024,1.43-0.031l25.476,39.897h33.158l-29.634-45.884
				C2421.456,748.971,2421.548,748.937,2421.634,748.896z M2410.456,685.315c4.671,4.363,7.01,10.497,7.01,18.4
				c0,7.769-2.339,13.87-7.01,18.297c-4.675,4.431-11.748,6.645-21.221,6.645h-25.011v-49.884h25.011
				C2398.708,678.773,2405.781,680.955,2410.456,685.315z"/>
			<polygon style="fill:#A7A9AC;" points="2493.822,678.773 2536.265,678.773 2536.265,794.895 2566.959,794.895 2566.959,678.773 
				2609.402,678.773 2609.402,651.787 2493.822,651.787 			"/>
			<path style="fill:#A7A9AC;" d="M2698.835,651.787l-59.116,143.108h31.453l11.819-30.666h61.482l11.773,30.666h32.211
				l-59.307-143.108H2698.835z M2692.684,739.083l21.109-54.769l21.027,54.769H2692.684z"/>
			<rect x="2931.696" y="651.787" style="fill:#A7A9AC;" width="30.694" height="143.108"/>
			<polygon style="fill:#A7A9AC;" points="3123.063,738.607 3057.126,651.787 3031.737,651.787 3031.737,794.895 3062.052,794.895 
				3062.052,708.034 3128.179,794.895 3153.379,794.895 3153.379,651.787 3123.063,651.787 			"/>
			<path style="fill:#A7A9AC;" d="M3321.064,660.68c-10.989-5.929-23.684-8.893-38.084-8.893h-60.253v143.108h60.253
				c14.4,0,27.095-2.964,38.084-8.893c10.99-5.929,19.578-14.241,25.769-24.942c6.188-10.698,9.284-23.271,9.284-37.719
				c0-14.583-3.097-27.191-9.284-37.822C3340.642,674.888,3332.054,666.608,3321.064,660.68z M3319.643,746.852
				c-3.6,6.679-8.653,11.826-15.158,15.435c-6.507,3.613-14.181,5.418-23.021,5.418h-28.043v-88.727h28.043
				c8.84,0,16.514,1.808,23.021,5.417c6.505,3.613,11.559,8.724,15.158,15.334c3.601,6.612,5.4,14.483,5.4,23.613
				C3325.043,732.336,3323.244,740.175,3319.643,746.852z"/>
			<path style="fill:#A7A9AC;" d="M3533.178,670.391c-6.507-6.676-14.148-11.857-22.926-15.538c-8.781-3.68-18.412-5.52-28.896-5.52
				c-10.358,0-19.96,1.84-28.8,5.52c-8.843,3.68-16.55,8.861-23.116,15.538c-6.569,6.679-11.652,14.515-15.253,23.511
				c-3.6,8.995-5.399,18.809-5.399,29.439c0,10.631,1.8,20.444,5.399,29.439c3.601,8.995,8.651,16.834,15.158,23.511
				c6.505,6.679,14.211,11.857,23.116,15.538c8.905,3.68,18.598,5.519,29.084,5.519c10.356,0,19.925-1.84,28.706-5.519
				c8.777-3.68,16.419-8.823,22.926-15.435c6.505-6.609,11.588-14.445,15.253-23.511c3.662-9.063,5.495-18.911,5.495-29.542
				c0-10.765-1.833-20.613-5.495-29.542C3544.766,684.874,3539.683,677.07,3533.178,670.391z M3519.726,741.945
				c-2.084,5.59-5.021,10.426-8.811,14.515c-3.79,4.089-8.181,7.226-13.169,9.404c-4.991,2.182-10.453,3.271-16.39,3.271
				c-5.938,0-11.434-1.089-16.484-3.271c-5.054-2.178-9.443-5.315-13.168-9.404c-3.728-4.089-6.632-8.96-8.716-14.617
				c-2.084-5.654-3.127-11.823-3.127-18.502c0-6.814,1.043-13.014,3.127-18.604c2.084-5.587,5.021-10.427,8.811-14.516
				c3.789-4.089,8.177-7.222,13.168-9.404c4.989-2.178,10.451-3.271,16.39-3.271c5.937,0,11.431,1.093,16.484,3.271
				c5.051,2.182,9.441,5.315,13.169,9.404c3.725,4.089,6.632,8.928,8.716,14.516c2.084,5.59,3.126,11.79,3.126,18.604
				C3522.852,730.158,3521.81,736.358,3519.726,741.945z"/>
			<polygon style="fill:#A7A9AC;" points="3706.262,738.607 3640.326,651.787 3614.936,651.787 3614.936,794.895 3645.251,794.895 
				3645.251,708.034 3711.378,794.895 3736.579,794.895 3736.579,651.787 3706.262,651.787 			"/>
			<polygon style="fill:#A7A9AC;" points="3836.431,735.198 3898.011,735.198 3898.011,709.439 3836.431,709.439 3836.431,678.364 
				3906.158,678.364 3906.158,651.787 3805.926,651.787 3805.926,794.895 3908.622,794.895 3908.622,768.318 3836.431,768.318 			
				"/>
			<path style="fill:#A7A9AC;" d="M4055.462,722.523c-4.548-2.996-9.568-5.382-15.063-7.155c-5.495-1.77-10.989-3.338-16.484-4.702
				c-5.495-1.361-10.516-2.725-15.063-4.089c-4.547-1.361-8.212-3.169-10.989-5.418c-2.78-2.248-4.169-5.213-4.169-8.893
				c0-3.134,0.82-5.894,2.464-8.28c1.64-2.383,4.357-4.325,8.147-5.827c3.789-1.498,8.65-2.249,14.589-2.249
				c5.937,0,11.999,0.92,18.19,2.76c6.188,1.84,12.378,4.67,18.568,8.484l9.474-25.146c-6.19-4.223-13.328-7.392-21.411-9.506
				c-8.085-2.111-16.295-3.169-24.632-3.169c-12.505,0-22.896,2.013-31.168,6.031c-8.275,4.021-14.466,9.404-18.568,16.151
				c-4.106,6.747-6.158,14.208-6.158,22.386c0,7.634,1.421,13.902,4.263,18.809c2.843,4.906,6.537,8.861,11.085,11.857
				c4.547,3,9.568,5.453,15.063,7.36c5.495,1.91,10.99,3.511,16.484,4.804c5.495,1.297,10.517,2.658,15.063,4.089
				c4.548,1.431,8.21,3.271,10.989,5.52c2.777,2.249,4.169,5.284,4.169,9.098c0,3-0.886,5.657-2.652,7.973
				c-1.771,2.319-4.519,4.124-8.242,5.418c-3.728,1.297-8.621,1.942-14.685,1.942c-7.958,0-15.821-1.396-23.59-4.191
				c-7.769-2.792-14.495-6.37-20.179-10.733l-10.421,24.942c5.936,4.907,13.767,8.893,23.494,11.96
				c9.726,3.066,19.896,4.6,30.506,4.6c12.63,0,23.083-2.044,31.358-6.133c8.271-4.088,14.494-9.471,18.663-16.15
				c4.168-6.676,6.252-14.036,6.252-22.08c0-7.494-1.421-13.698-4.263-18.605C4063.705,729.474,4060.009,725.523,4055.462,722.523z"
				/>
			<rect x="4129.734" y="651.787" style="fill:#A7A9AC;" width="30.694" height="143.108"/>
			<path style="fill:#A7A9AC;" d="M4328.869,794.895h32.211l-59.306-143.108h-30.315l-59.116,143.108h31.452l11.819-30.666h61.482
				L4328.869,794.895z M4265.306,739.083l21.109-54.77l21.027,54.77H4265.306z"/>
		</g>
	</g>
</g>
</svg>
